<svg width="927" height="876" viewBox="0 0 927 876" fill="none" xmlns="http://www.w3.org/2000/svg">
<g clip-path="url(#clip0)">
<path fill-rule="evenodd" clip-rule="evenodd" d="M67.4095 669.721C87.8365 561.543 294.533 623.171 430.04 589.727C565.548 556.284 725.865 400.532 831.966 476.827C938.066 553.122 825.176 737.549 581.828 779.168C338.478 820.788 46.9826 777.898 67.4095 669.721Z" fill="#F2F2F2"/>
<g opacity="0.5">
<path opacity="0.5" fill-rule="evenodd" clip-rule="evenodd" d="M121.397 164.472C119.427 166.495 120.192 173.685 120.151 176.346C120.087 180.488 120.338 184.594 120.675 188.721C120.9 191.486 122.172 217.859 125.712 215.833C127.708 214.692 126.457 207.062 126.453 204.649C126.445 199.285 126.227 193.933 125.88 188.58C125.557 183.611 125.354 178.699 125.54 173.72C125.585 172.505 126.691 159.018 121.397 164.472Z" fill="#89C5CC"/>
<path opacity="0.5" fill-rule="evenodd" clip-rule="evenodd" d="M207.208 161.221C190.28 161.359 173.358 162.218 156.438 162.744C148.296 162.998 140.159 163.32 132.027 163.784C129.254 163.942 123.311 163.029 121.002 164.548C115.876 167.919 124.142 168.707 126.346 168.625C159.832 167.377 193.328 165.731 226.841 165.654C243.282 165.617 259.713 166.097 276.155 165.99C282.44 165.949 289.399 163.164 290.986 170.687C292.777 179.175 290.719 188.627 290.159 197.158C289.786 202.852 289.919 208.429 290.168 214.119C290.328 217.763 289.911 221.87 290.539 225.448C291.141 228.892 293.549 230.957 295.756 227.099C297.075 224.793 296.419 219.1 296.507 216.43C296.624 212.833 296.514 209.236 296.514 205.638C296.513 196.857 297.718 188.111 297.559 179.33C297.456 173.668 297.164 163.405 290.221 162.045C282.574 160.546 273.175 162.052 265.349 161.961C245.96 161.733 226.603 161.065 207.208 161.221Z" fill="#89C5CC"/>
<path opacity="0.5" fill-rule="evenodd" clip-rule="evenodd" d="M160.564 216.148C154.18 216.148 147.796 216.188 141.414 216.296C135.94 216.389 127.333 215.216 122.238 217.23C118.75 218.608 117.824 222.613 122.238 223.68C127.053 224.843 134.309 222.941 139.346 222.849C164.605 222.391 190.108 221.793 215.332 223.437C238.968 224.975 263.059 226.468 286.729 224.843C288.72 224.707 298.877 224.291 294.242 220.376C291.539 218.09 280.579 219.593 277.065 219.483C264.671 219.099 252.264 219.014 239.874 218.531C227.644 218.053 215.47 216.64 203.236 216.29C189.024 215.882 174.781 216.148 160.564 216.148Z" fill="#89C5CC"/>
<path opacity="0.5" fill-rule="evenodd" clip-rule="evenodd" d="M154.176 178.812C164.125 179.259 173.969 194.097 163.902 201.267C154.458 207.997 136.76 200.622 142.011 187.575C141.256 189.461 142.966 185.525 142.987 185.499C143.986 184.29 145.778 182.95 147.01 181.997C148.418 180.904 149.885 179.704 151.583 179.156C152.698 178.797 152.523 180.148 154.176 178.812ZM149.331 173.461C144.675 175.33 142.55 177.439 139.349 181.256C137.136 183.897 134.312 185.287 134.337 188.855C134.344 189.645 135.329 190.513 135.501 191.275C135.737 192.326 135.464 193.673 135.65 194.79C137.577 206.32 150.952 210.206 160.743 208.029C169.271 206.133 175.65 197.714 173.675 188.559C171.685 179.343 158.397 169.814 149.331 173.461Z" fill="#89C5CC"/>
<path opacity="0.5" fill-rule="evenodd" clip-rule="evenodd" d="M145.183 189.555C145.183 193.702 151.554 193.702 151.554 189.555C151.554 185.454 145.183 185.278 145.183 189.555Z" fill="#89C5CC"/>
<path opacity="0.5" fill-rule="evenodd" clip-rule="evenodd" d="M153.154 188.715C153.154 192.01 158.215 192.01 158.215 188.715C158.215 185.457 153.154 185.318 153.154 188.715Z" fill="#89C5CC"/>
<path opacity="0.5" fill-rule="evenodd" clip-rule="evenodd" d="M154.721 195.512C153.1 196.152 151.043 194.824 149.713 195.698C147.357 197.251 149.719 198.654 150.982 199.277C156.669 202.084 157.681 194.344 154.721 195.512Z" fill="#89C5CC"/>
<path opacity="0.5" fill-rule="evenodd" clip-rule="evenodd" d="M241.584 186.32C241.413 186.393 240.811 186.656 241.584 186.32V186.32ZM216.814 182.597C212.557 183.585 208.963 187.674 204.338 187.126C200.794 186.708 198.394 183.19 194.896 182.679C190.42 182.025 178.237 192.524 184.642 194.326C188.379 195.378 190.452 188.355 193.753 187.982C196.365 187.687 199.916 190.981 202.622 191.45C207.671 192.324 211.138 189.465 215.569 187.62C220.385 185.617 223.125 187.421 227.313 189.649C230.619 191.406 233.733 192.551 237.515 191.826C241.065 191.146 245.525 187.391 249.099 187.776C252.599 188.153 255.097 191.91 258.697 192.259C260.181 192.402 262.391 192.922 262.142 190.566C261.941 188.681 259.896 189.001 258.615 188.314C255.323 186.552 252.244 183.429 248.272 183.696C245.283 183.897 242.562 186.056 239.809 187.089C230.789 190.472 225.718 180.544 216.814 182.597Z" fill="#89C5CC"/>
<path opacity="0.5" fill-rule="evenodd" clip-rule="evenodd" d="M224.35 242.331C206.952 242.496 189.494 242.761 172.145 244.195C168.031 244.535 126.032 248.614 126.112 248.908C126.259 249.45 131.662 250.281 131.628 250.408C131.263 249.481 130.431 249.096 129.131 249.257C168.965 249.257 208.67 245.589 248.556 246.249C258.578 246.414 268.637 246.345 278.652 246.67C281.153 246.751 287.348 248.593 289.31 247.433C294.464 244.386 285.103 244.034 283.552 243.907C263.923 242.291 244.033 242.129 224.35 242.331Z" fill="#69A1AC"/>
<path opacity="0.5" fill-rule="evenodd" clip-rule="evenodd" d="M120.956 251.024C118.355 253.706 120.75 263.354 120.852 266.98C121 272.222 120.878 277.501 121.326 282.73C121.836 288.703 122.628 295.066 124.152 300.861C124.991 304.053 127.937 309.126 129.105 303.327C129.938 299.182 128.673 293.687 128.232 289.466C127.643 283.82 127.5 278.249 127.479 272.574C127.459 267.631 127.366 262.666 126.971 257.739C126.767 255.18 125.516 246.36 120.956 251.024Z" fill="#69A1AC"/>
<path opacity="0.5" fill-rule="evenodd" clip-rule="evenodd" d="M186.395 300.156C174.048 300.374 161.675 300.674 149.35 301.466C144.298 301.792 139.249 302.277 134.216 302.825C133.19 302.937 121.821 303.412 126.901 307.726C129.194 309.675 138.625 306.981 141.74 306.7C146.98 306.228 152.217 305.921 157.471 305.693C169.646 305.161 181.857 304.692 194.044 304.908C216.3 305.307 238.413 305.483 260.675 304.973C263.838 304.901 288.618 305.581 289.46 302.198C290.137 299.471 281.276 300.722 279.66 300.771C273.733 300.952 267.805 300.911 261.875 300.879C236.757 300.747 211.494 299.719 186.395 300.156Z" fill="#69A1AC"/>
<path opacity="0.5" fill-rule="evenodd" clip-rule="evenodd" d="M285.264 246.5C285.656 257.804 287.528 269.096 288.127 280.435C288.4 285.617 288.722 290.796 288.968 295.981C289.049 297.653 288.393 301.684 290.316 302.646C292.955 303.966 293.31 301.307 293.804 299.508C295.231 294.313 294.266 287.564 294.136 282.228C294.011 277.061 294.002 271.883 293.631 266.725C293.251 261.455 292.22 256.285 291.742 251.034C291.539 248.814 292.247 245.118 289.954 243.739C287.973 242.548 285.179 244.05 285.264 246.5Z" fill="#69A1AC"/>
<path opacity="0.5" fill-rule="evenodd" clip-rule="evenodd" d="M163.91 265.304C163.956 265.342 164.003 265.379 164.049 265.416C164.003 265.379 163.956 265.342 163.91 265.304ZM153.417 261.955C157.329 263.104 160.543 262.676 164.281 265.604C167.379 268.033 170.557 271.587 171.584 275.514C173.958 284.585 165.909 289.558 158.364 289.656C150.635 289.755 139.194 287.911 139.59 277.724C139.894 269.897 145.451 262.259 153.417 261.955ZM153.693 256.828C143.547 257.347 135.363 269.065 135.451 278.926C135.557 290.88 148.727 293.96 158.084 294.042C168.643 294.135 179.172 286.637 176.343 274.426C174.076 264.642 163.449 256.306 153.693 256.828Z" fill="#69A1AC"/>
<path opacity="0.5" fill-rule="evenodd" clip-rule="evenodd" d="M143.487 272.877C143.487 276.211 148.608 276.211 148.608 272.877C148.608 269.583 143.487 269.441 143.487 272.877Z" fill="#69A1AC"/>
<path opacity="0.5" fill-rule="evenodd" clip-rule="evenodd" d="M154.229 271.414C154.229 274.774 159.39 274.774 159.39 271.414C159.39 268.093 154.229 267.95 154.229 271.414Z" fill="#69A1AC"/>
<path opacity="0.5" fill-rule="evenodd" clip-rule="evenodd" d="M148.308 279.018C144.974 282.439 156.684 288.438 159.445 283.678C161.714 279.767 156.775 281.065 155.025 280.853C153.122 280.623 149.861 277.424 148.308 279.018Z" fill="#69A1AC"/>
<path opacity="0.5" fill-rule="evenodd" clip-rule="evenodd" d="M241.927 271.483C241.606 271.622 241.606 271.622 241.927 271.483V271.483ZM197.955 265.912C194.58 266.563 183.503 270.406 183.354 274.523C183.08 282.008 193.928 274.341 196.284 273.357C202.682 270.683 206.045 276.138 212.473 276.426C218.055 276.676 223.189 271.762 228.448 272.343C233.959 272.953 236.608 278.98 242.969 275.78C246.335 274.088 246.25 271.476 242.472 271.23C240.189 271.082 238.62 272.052 236.24 271.042C232.517 269.463 231.017 266.891 226.563 267.3C223.2 267.609 220.163 269.557 216.88 270.312C209.367 272.038 205.199 264.516 197.955 265.912Z" fill="#69A1AC"/>
<path opacity="0.5" fill-rule="evenodd" clip-rule="evenodd" d="M267.85 274.733C267.617 274.833 267.617 274.833 267.85 274.733V274.733ZM268.701 271.617C268.739 271.633 268.993 271.997 268.701 271.617V271.617ZM264.833 269.237C264.687 269.352 264.687 269.352 264.833 269.237V269.237ZM264.917 269.208C265.667 269.67 271.699 273.911 267.318 274.911C265.093 275.417 263.253 270.815 264.917 269.208ZM262.92 264.509C253.258 269.04 263.655 285.253 271.238 278.665C274.428 275.894 274.848 270.291 271.744 267.403C269.885 265.673 265.444 263.323 262.92 264.509Z" fill="#69A1AC"/>
<path opacity="0.5" fill-rule="evenodd" clip-rule="evenodd" d="M172.218 328.398C160.161 328.402 147.998 328.142 135.957 328.876C133.931 329 126.212 328.603 125.168 330.781C123.258 334.766 131.201 332.788 132.354 332.669C156.329 330.2 181.371 331.621 205.424 332.325C225.097 332.899 244.663 333.256 264.311 334.3C269.476 334.573 274.636 334.875 279.797 335.196C281.48 335.301 285.714 336.447 286.068 333.684C286.397 331.127 281.115 331.704 279.796 331.633C269.305 331.065 258.821 330.47 248.332 329.863C223.088 328.399 197.502 328.393 172.218 328.398Z" fill="#89C5CC"/>
<path opacity="0.5" fill-rule="evenodd" clip-rule="evenodd" d="M124.781 332.828C122.529 335.13 123.585 343.921 123.522 346.826C123.412 351.908 123.179 356.987 123.074 362.066C122.965 367.376 123.117 372.711 123.422 378.013C123.55 380.239 125.327 390.999 128.124 384.841C129.374 382.089 128.094 374.426 128.113 371.308C128.148 365.635 128.445 359.984 128.719 354.317C128.956 349.447 128.965 344.571 129.171 339.699C129.236 338.145 129.415 328.048 124.781 332.828Z" fill="#89C5CC"/>
<path opacity="0.5" fill-rule="evenodd" clip-rule="evenodd" d="M288.097 378.219C276.362 379.456 264.44 378.873 252.663 379.786C242.512 380.573 232.37 380.895 222.193 381.117C199.148 381.616 176.064 382.105 153.085 384.08C147.849 384.529 142.618 385.007 137.368 385.248C134.742 385.368 123.722 384.139 122.902 386.986C121.504 391.835 133.288 389.915 135.829 389.839C141.419 389.674 146.982 389.258 152.555 388.822C175.986 386.986 199.504 386.437 222.985 385.674C235.754 385.26 248.435 384.299 261.176 383.425C267.527 382.99 273.895 382.976 280.245 382.553C281.907 382.442 287.788 382.66 288.983 381.285C289.804 380.341 290.012 378.036 288.097 378.219Z" fill="#89C5CC"/>
<path opacity="0.5" fill-rule="evenodd" clip-rule="evenodd" d="M284.119 333.653C284.521 345.225 285.158 356.787 285.537 368.358C285.651 371.837 284.629 378.074 286.513 381.142C289.543 386.078 291.909 380.855 292.463 377.78C294.215 368.076 292.332 357.356 291.842 347.592C291.657 343.867 292.782 335.576 291.03 332.242C289.363 329.067 283.97 329.385 284.119 333.653Z" fill="#89C5CC"/>
<path opacity="0.5" fill-rule="evenodd" clip-rule="evenodd" d="M264.421 350.135C268.915 351.387 269.572 361.436 264.499 362.181C256.949 363.287 260.252 352.206 264.421 350.135ZM263.16 346.137C261.79 346.093 258.624 345.704 257.779 346.852C257.072 347.813 257.786 349.84 257.704 350.754C257.407 354.024 254.821 355.912 255.977 359.773C256.761 362.393 258.862 364.855 261.423 365.765C274.933 370.567 274.769 343.722 263.16 346.137Z" fill="#89C5CC"/>
<path opacity="0.5" fill-rule="evenodd" clip-rule="evenodd" d="M141.182 347.941C141.148 347.985 141.114 348.028 141.082 348.073C141.114 348.028 141.148 347.985 141.182 347.941ZM151.794 342.135C151.741 341.67 151.687 341.205 151.635 340.739C158.96 344.295 164.789 350.91 162.357 359.789C160.501 366.562 153.796 368.965 147.548 367.293C140.633 365.44 137.329 359.579 139.193 352.381C140.053 349.06 142.695 344.598 146.109 343.53C147.699 343.033 151.214 344.3 151.794 342.135ZM147.51 339.322C145.657 339.451 143.853 340.245 142.341 341.331C143.756 340.099 145.643 339.366 147.51 339.322ZM147.563 334.948C142.986 335.092 139.986 337.941 137.271 341.363C136.419 342.437 133.538 345.286 133.895 346.732C134.177 347.878 134.915 349.55 136.469 348.274C128.329 364.957 149.357 379.187 162.194 367.585C174.175 356.759 162.288 334.44 147.563 334.948Z" fill="#89C5CC"/>
<path opacity="0.5" fill-rule="evenodd" clip-rule="evenodd" d="M143.404 350.444C143.404 352.666 146.758 352.666 146.758 350.444C146.758 348.223 143.404 348.223 143.404 350.444Z" fill="#89C5CC"/>
<path opacity="0.5" fill-rule="evenodd" clip-rule="evenodd" d="M149.127 350.824C149.127 353.081 152.534 353.081 152.534 350.824C152.534 348.566 149.127 348.566 149.127 350.824Z" fill="#89C5CC"/>
<path opacity="0.5" fill-rule="evenodd" clip-rule="evenodd" d="M151.724 358.753C150.13 358.886 144.294 358.329 143.27 359.764C141.558 362.164 144.29 362.248 145.632 362.507C146.841 362.74 152.094 362.609 152.835 361.505C153.489 360.529 153.336 358.611 151.724 358.753Z" fill="#89C5CC"/>
<path opacity="0.5" fill-rule="evenodd" clip-rule="evenodd" d="M222.03 352.529C221.756 352.645 221.756 352.645 222.03 352.529V352.529ZM199.982 350.871C196.389 351.143 193.347 353.268 189.912 354.115C186.247 355.021 184.66 353.356 181.326 352.267C177.859 351.133 175.392 351.58 172.605 354.016C171.027 355.396 167.562 358.573 168.549 361.023C170.809 366.634 175.925 357.506 178.331 357.081C182.084 356.419 185.424 359.794 189.753 358.828C193.675 357.954 197.155 355.184 201.252 355.155C204.678 355.129 207.906 357.058 211.288 357.524C216.452 358.236 219.842 356.35 224.615 354.951C228.754 353.738 231.655 355.338 235.548 356.684C237.327 357.298 243.264 359.535 242.171 355.479C241.862 354.334 234.039 352.286 232.826 351.892C228.549 350.503 225.841 351.044 221.766 352.641C218.369 353.975 215.51 354.624 211.867 353.89C207.854 353.082 204.203 350.542 199.982 350.871Z" fill="#89C5CC"/>
</g>
<g opacity="0.5">
<path opacity="0.5" fill-rule="evenodd" clip-rule="evenodd" d="M365.257 164.91C365.837 152.083 366.633 139.275 367.053 126.441C367.262 120.081 367.425 113.721 367.583 107.36C367.617 105.944 367.653 104.528 367.685 103.111C367.786 98.2995 367.231 97.9059 371.94 97.4787C392.947 95.5719 414.037 94.9399 435.069 93.2147C460.435 91.134 485.932 89.6973 511.37 89.0533C522.673 88.7666 534.025 88.1728 545.33 88.5342C547.834 88.6142 552.751 87.944 553.738 89.9464C554.164 90.8115 553.27 93.7882 553.157 94.7863C552.803 97.9046 552.472 101.034 552.268 104.167C551.065 122.65 551.782 141.599 555.262 159.802C547.098 155.067 536.783 150.995 527.268 151.803C517.567 152.628 510.31 158.391 502.544 163.696C498.152 166.698 496.673 167.486 492.291 164.58C488.514 162.074 484.941 159.21 481.379 156.398C475.88 152.059 470.692 147.356 465.36 142.807C455.558 134.444 442.051 122.54 428.512 126.045C418.839 128.549 409.907 134.016 401.511 139.366C389.037 147.316 377.746 157.051 365.257 164.91ZM533.374 82.8382C485.179 82.8382 437.345 87.6429 389.285 90.2421C384.265 90.5134 379.263 90.913 374.262 91.4093C370.929 91.7403 362.778 90.3508 360.593 93.2797C359.135 95.2338 360.387 95.527 360.593 97.3838C360.851 99.7236 360.698 102.496 360.632 104.973C360.471 110.941 360.302 116.908 360.171 122.876C359.673 145.433 359.362 167.986 360.25 190.536C360.444 195.455 362.186 202.265 361.233 207.044C360.543 210.504 358.235 212.609 363.557 213.248C368.793 213.878 375.196 212.277 380.437 211.764C385.708 211.249 390.979 210.688 396.256 210.241C419.202 208.297 442.371 208.591 465.378 207.944C488.59 207.293 511.813 207.251 535.034 207.237C544.75 207.232 555.853 207.794 565.333 205.045C568.668 204.076 569.208 203.599 568.385 200.197C568.23 199.55 567.223 199.312 566.927 198.145C566.525 196.556 566.731 194.625 566.638 192.973C566.331 187.572 566.223 182.162 565.976 176.759C565.563 167.73 564.049 158.967 562.93 150.029C561.638 139.708 561.704 129.227 561.678 118.837C561.663 113.074 561.807 107.331 562.257 101.584C562.546 97.898 564.311 92.3951 563.416 88.9577C562.97 87.2463 562.241 85.889 560.508 85.1525C559.411 84.6853 558.487 85.0509 557.403 84.9326C556.116 84.7922 555.313 84.6064 553.772 84.2474C547.167 82.7079 540.104 82.8382 533.374 82.8382Z" fill="#69A1AC"/>
<path opacity="0.5" fill-rule="evenodd" clip-rule="evenodd" d="M506.702 107.377C506.698 110.969 506.153 116.27 507.764 119.652C509.806 123.943 512.362 122.602 513.038 118.57C513.426 116.26 513.416 109.423 512.695 107.377C511.674 104.481 506.702 102.509 506.702 107.377Z" fill="#89C5CC"/>
<path opacity="0.5" fill-rule="evenodd" clip-rule="evenodd" d="M512.563 108.765C509.284 108.883 499.733 108.074 497.515 110.786C493.709 115.436 500.334 116.26 503.179 115.999C506.471 115.698 516.643 116.433 518.848 113.719C522.536 109.177 515.141 108.668 512.563 108.765Z" fill="#89C5CC"/>
<path opacity="0.5" fill-rule="evenodd" clip-rule="evenodd" d="M385.31 228.764C399.726 231.339 395.241 253.943 381.601 248.707C376.847 246.883 369.844 241.611 372.471 235.401C374.433 230.76 380.829 228.322 385.31 228.764ZM379.341 221.736C369.966 223.359 363.556 233.793 366.771 242.894C369.872 251.674 381.633 258.103 390.308 254.948C398.589 251.935 402.72 240.605 399.929 232.317C397.012 223.657 387.509 220.322 379.341 221.736Z" fill="#89C5CC"/>
<path opacity="0.5" fill-rule="evenodd" clip-rule="evenodd" d="M467.028 231.408C463.439 231.715 460.337 234.299 456.725 234.756C453.348 235.184 450.55 233.995 447.388 233.046C443.566 231.898 440.061 231.394 436.155 232.413C433.171 233.192 430.227 235.281 427.127 235.533C421.026 236.029 413.936 228.87 409.173 236.967C406.889 240.847 410.205 243.348 413.62 241.538C417.18 239.65 415.433 238.975 419.85 240.09C423.534 241.019 426.513 241.524 430.203 240.221C433.547 239.042 436.482 236.885 440.116 236.641C443.675 236.404 446.77 238.071 450.171 238.79C454.354 239.675 458.054 239.005 462.018 237.658C465.787 236.374 467.292 235.674 471.096 236.818C473.504 237.542 478.767 239.844 481.111 237.989C485.164 234.782 479.738 234.313 477.6 233.857C474.159 233.124 470.599 231.107 467.028 231.408Z" fill="#89C5CC"/>
<path opacity="0.5" fill-rule="evenodd" clip-rule="evenodd" d="M549.165 229.253C549.194 229.276 549.222 229.299 549.25 229.321C549.222 229.299 549.192 229.276 549.165 229.253ZM545.641 228.496C550.881 228.842 556.547 238.659 549.605 239.008C544.718 239.252 539.25 230.657 545.641 228.496ZM544.906 220.463C528.337 225.221 535.911 249.244 551.893 246.469C559.153 245.208 561.613 236.56 559.213 230.157C558.182 227.408 556.172 225.09 553.771 223.508C552 222.339 546.931 219.884 544.906 220.463Z" fill="#89C5CC"/>
<path opacity="0.5" fill-rule="evenodd" clip-rule="evenodd" d="M467.604 270.613C482.184 270.099 496.766 269.584 511.361 269.445C519.27 269.37 527.137 269.512 535.036 269.978C538.538 270.184 542.039 270.384 545.545 270.536C546.15 270.563 546.985 270.52 547.907 270.474C550.077 270.365 552.726 270.231 553.973 270.908C560.945 274.701 546.74 275.117 545.013 275.087C541.146 275.02 537.283 274.823 533.42 274.627C530.044 274.456 526.668 274.285 523.288 274.198C501.607 273.651 479.794 274.653 458.077 275.65C453.099 275.878 448.126 276.107 443.16 276.316C437.887 276.539 432.617 276.683 427.346 276.826C419.812 277.032 412.278 277.239 404.744 277.674C401.867 277.84 398.991 278.015 396.115 278.192C391.994 278.444 387.874 278.697 383.752 278.92C380.525 279.095 377.296 279.265 374.065 279.349C373.483 279.363 372.725 279.447 371.897 279.537C369.894 279.757 367.484 280.021 366.181 279.474C364.615 278.815 363.348 277.894 364.21 275.941C364.937 274.291 367.584 274.489 369.515 274.634C370.042 274.674 370.516 274.708 370.881 274.701C377.05 274.578 383.204 274.222 389.361 273.834C391.614 273.692 393.865 273.546 396.116 273.401H396.117C407.839 272.643 419.549 271.886 431.299 271.68C443.405 271.467 455.504 271.04 467.604 270.613ZM543.754 369.296L547.946 369.244C550.111 369.438 551.079 371.774 549.688 373.57C548.625 374.946 544.53 375.008 541.86 375.048C541.12 375.059 540.49 375.07 540.064 375.105C533.095 375.68 526.14 375.939 519.15 376.009C504.431 376.152 489.767 376.801 475.071 377.663C460.029 378.545 444.974 378.876 429.918 379.209H429.916C418.84 379.452 407.762 379.697 396.69 380.16C390.348 380.425 384.006 380.623 377.662 380.795C376.981 380.813 376.074 380.913 375.048 381.027C371.041 381.472 365.218 382.119 363.899 378.846C362.728 375.942 364.355 374.605 366.735 373.997C366.359 372.277 366.429 369.86 366.468 368.475C366.481 368.059 366.489 367.736 366.483 367.553C366.424 365.818 366.382 364.081 366.34 362.345C366.293 360.377 366.246 358.41 366.173 356.443C366.105 354.659 366.044 352.872 365.981 351.084C365.735 344.035 365.49 336.968 364.961 329.947C364.718 326.705 364.332 323.503 363.946 320.306C363.331 315.2 362.716 310.108 362.689 304.897C362.684 303.959 362.637 302.787 362.586 301.464C362.323 294.698 361.907 284 365.991 280.743C373.193 276.421 371.768 288.894 371.133 294.461C371.029 295.381 370.945 296.111 370.925 296.548C370.512 305.804 371.073 314.654 371.979 323.852C372.591 330.064 372.233 336.255 371.876 342.457C371.748 344.671 371.621 346.887 371.537 349.107C371.495 350.204 371.458 351.302 371.421 352.398C371.307 355.775 371.195 359.148 370.948 362.521C370.92 362.886 370.911 363.585 370.9 364.479C370.868 367 370.816 371.068 370.291 373.538C371.409 373.488 372.492 373.501 373.389 373.511C373.959 373.517 374.454 373.523 374.832 373.511C376.551 373.457 378.271 373.405 379.99 373.354C385.068 373.2 390.147 373.047 395.224 372.851C407.21 372.388 419.199 372.233 431.189 372.078C445.35 371.896 459.511 371.713 473.666 371.021C496.993 369.881 520.402 369.588 543.754 369.296ZM548.081 278.8C548.069 294.657 549.261 310.078 550.654 325.872C551.516 335.641 552.206 345.447 552.756 355.24C552.781 355.693 552.778 356.45 552.773 357.398V357.399C552.745 362.815 552.685 374.484 557.89 371.692C561.82 369.584 560.309 357.363 559.473 350.6C559.29 349.117 559.139 347.896 559.085 347.102C558.971 345.411 558.858 343.719 558.746 342.029C558.222 334.179 557.699 326.333 557.011 318.492L556.865 316.838C556.068 307.781 555.272 298.73 555.13 289.63C555.119 288.878 555.189 287.83 555.268 286.645C555.499 283.22 555.805 278.658 554.421 276.839C552.474 274.279 548.085 275.036 548.081 278.8Z" fill="#69A1AC"/>
<path opacity="0.5" fill-rule="evenodd" clip-rule="evenodd" d="M468.27 317.672C486.893 309.008 505.734 300.243 525.099 294.001C526.5 293.55 527.384 295.034 527.067 296.28C526.739 297.563 523.71 298.658 521.701 299.385C521.099 299.602 520.589 299.787 520.271 299.932C517.567 301.175 514.854 302.402 512.142 303.629C509.365 304.885 506.588 306.143 503.817 307.415C498.058 310.062 492.293 312.697 486.528 315.332C480.354 318.153 474.181 320.974 468.012 323.811C467.779 323.918 467.545 324.026 467.312 324.133C475.698 327.198 484.036 330.399 492.337 333.698C495.173 334.824 498.001 335.976 500.828 337.126C502.428 337.777 504.027 338.427 505.63 339.074C506.151 339.284 507.059 339.57 508.15 339.913C511.705 341.028 517.205 342.756 517.612 344.5C518.273 347.342 510.679 344.593 507.814 343.556C507.435 343.418 507.138 343.311 506.955 343.25C502.727 341.86 498.551 340.313 494.377 338.766L493.798 338.551C490.489 337.326 487.186 336.086 483.883 334.847C477.429 332.428 470.976 330.007 464.487 327.686C463.57 327.357 462.652 327.03 461.734 326.704C451.321 331.515 440.929 336.37 430.571 341.303C425.017 343.949 419.493 346.655 413.984 349.398C412.782 349.997 411.292 350.922 409.675 351.928C405.799 354.337 401.184 357.206 398.009 357.134C396.308 357.095 395.16 356.72 394.982 354.598C394.799 352.408 397.531 351.261 399.496 350.435C399.965 350.236 400.391 350.057 400.723 349.887C406.611 346.859 412.535 343.907 418.477 340.993C430.277 335.205 442.188 329.648 454.14 324.201C454.209 324.17 454.278 324.139 454.346 324.107C447.717 321.801 441.07 319.548 434.407 317.344C433.742 317.124 432.379 316.736 430.587 316.224C422.117 313.813 404.076 308.674 404.879 305.673C405.799 302.239 422.713 308.514 430.202 311.293C431.606 311.814 432.679 312.212 433.252 312.4C442.205 315.333 451.133 318.35 460.015 321.505C462.762 320.236 465.513 318.956 468.27 317.672Z" fill="#89C5CC"/>
<path opacity="0.5" fill-rule="evenodd" clip-rule="evenodd" d="M388.473 393.083C393.924 394.066 397.769 399.444 397.172 405.075C396.363 412.685 388.988 416.172 382.174 415.18C374.444 414.053 372.818 407.332 376.564 400.868C377.393 399.437 378.346 397.723 379.855 396.97C380.89 396.452 382.211 396.909 383.045 396.492C385.971 395.028 384.211 392.694 388.473 393.083ZM385.99 388.113C379.338 388.987 367.048 396.903 367.669 404.823C368.209 405.741 369.021 406.116 370.105 405.95C369.844 407.666 369.929 409.363 370.36 411.042C370.992 413.222 372.253 415.009 373.942 416.427C377.421 419.352 382.176 420.069 386.508 419.556C394.596 418.601 400.97 412.916 401.425 404.264C401.868 395.819 394.7 386.982 385.99 388.113Z" fill="#89C5CC"/>
<path opacity="0.5" fill-rule="evenodd" clip-rule="evenodd" d="M418.21 398.419C415.225 400.045 410.503 402.544 408.753 405.633C406.904 408.896 408.818 412.466 412.714 410.923C415.807 409.698 417.774 405.804 421.073 404.556C423.985 403.455 425.157 404.016 428.235 405.113C431.406 406.242 434.177 407.335 437.604 407.057C441.912 406.709 445.643 404.14 449.859 403.556C453.409 403.064 456.337 404.484 459.737 405.05C463.682 405.705 466.261 404.17 469.951 403.37C472.462 402.826 476.886 405.039 478.718 404.211C482.834 402.349 478.479 400.074 476.2 399.322C472.36 398.056 469.998 399.173 466.346 400.224C462.381 401.364 460.669 400.506 456.878 399.459C449.21 397.341 443.286 402.464 436.018 401.533C429.29 400.67 425.263 394.577 418.21 398.419Z" fill="#89C5CC"/>
<path opacity="0.5" fill-rule="evenodd" clip-rule="evenodd" d="M543.592 394.633C550.972 401.749 542.681 411.873 534.543 406.186C531.68 404.185 531.633 400.97 533.862 398.093C535.901 395.463 540.38 394.437 543.592 394.633ZM540.856 388.882C533.961 390.262 527.457 393.516 526.832 401.7C526.223 409.685 534.188 413.394 540.878 412.871C555.901 411.693 554.815 386.107 540.856 388.882Z" fill="#89C5CC"/>
</g>
<path opacity="0.5" fill-rule="evenodd" clip-rule="evenodd" d="M704.193 123.678C698.677 123.788 685.057 125.851 683.032 132.561C681.495 137.653 686.061 136.535 688.508 134.682C691.819 132.176 694.721 130.676 698.824 129.913C714.449 127.007 729.462 137.43 744.938 138.748C750.801 139.248 757.875 139.573 763.472 137.621C767.458 136.23 767.978 133.198 763.43 132.737C759.565 132.344 755.288 133.581 751.326 133.546C734.929 133.402 720.354 123.361 704.193 123.678Z" fill="#C1DEE2"/>
<g opacity="0.5">
<path opacity="0.5" fill-rule="evenodd" clip-rule="evenodd" d="M124.655 442.331C114.102 442.452 103.554 442.853 93.0221 443.538C83.0064 444.191 72.139 443.695 62.2864 445.692C59.4887 446.259 55.7095 448.88 59.4295 451.765C62.0443 453.793 71.6105 451.461 74.7329 451.264C86.2314 450.536 97.7359 449.666 109.251 449.248C120.152 448.851 131.052 448.712 141.959 448.6C143.624 448.583 146.387 448.034 148.046 448.531C150.428 449.245 149.863 449.44 150.041 452.549C150.364 458.184 150.275 463.839 150.167 469.479C150.061 474.938 149.865 480.395 149.885 485.855C149.897 489.751 148.687 497.492 150.587 500.876C153.323 505.746 156.162 500.456 156.366 497.22C156.758 491.03 156.583 484.766 156.584 478.568C156.585 472.751 156.627 466.934 156.428 461.12C156.282 456.92 156.866 449.589 154.666 445.771C152.425 441.882 147.03 442.72 143.094 442.535C136.953 442.245 130.801 442.265 124.655 442.331Z" fill="#89C5CC"/>
<path opacity="0.5" fill-rule="evenodd" clip-rule="evenodd" d="M57.5111 449.349C57.5228 460.28 56.2932 471.136 55.9487 482.054C55.7908 487.073 55.4702 492.584 56.705 497.511C57.9514 502.487 61.9101 503.565 62.366 498.01C63.2894 486.764 63.063 475.101 63.782 463.765C64.0358 459.761 65.6876 452.426 64.1455 448.678C62.7876 445.376 57.5053 444.743 57.5111 449.349Z" fill="#89C5CC"/>
<path opacity="0.5" fill-rule="evenodd" clip-rule="evenodd" d="M156.47 497.527C138.143 500.021 118.984 499.111 100.526 499.504C91.6704 499.692 82.8168 499.704 73.9602 499.799C70.8693 499.831 63.0198 498.623 60.3458 500.41C56.0891 503.254 60.7076 505.449 63.5257 505.513C81.0035 505.905 98.676 505.08 116.15 504.49C124.002 504.224 131.878 504.095 139.709 503.409C144.529 502.986 149.797 502.577 154.478 501.245C155.475 500.961 157.648 501.02 157.871 499.621C158.008 498.756 157.759 497.344 156.47 497.527Z" fill="#89C5CC"/>
<path opacity="0.5" fill-rule="evenodd" clip-rule="evenodd" d="M80.2611 513.413C75.1675 513.444 59.8182 511.011 57.7087 516.119C54.8965 522.931 65.8672 521.341 68.8177 521.262C75.5189 521.086 82.2154 521.067 88.9184 521.071C95.4953 521.073 102.072 521.029 108.647 520.868C110.552 520.822 114.987 521.635 116.083 519.276C116.916 517.483 116.258 516.068 114.721 515.119C111.025 512.835 101.423 514.159 97.0954 513.954C91.4924 513.689 85.8709 513.413 80.2611 513.413Z" fill="#89C5CC"/>
<path opacity="0.5" fill-rule="evenodd" clip-rule="evenodd" d="M142.228 514.675C139.317 514.852 133.429 513.618 130.821 514.989C127.857 516.546 128.902 518.984 131.46 520.055C133.232 520.797 140.502 520.408 142.228 519.549C144.027 518.653 146.061 514.432 142.228 514.675Z" fill="#89C5CC"/>
<path opacity="0.5" fill-rule="evenodd" clip-rule="evenodd" d="M174.142 450.422C171.033 451.3 171.976 469.451 171.896 472.328C171.677 480.212 170.815 490.127 173.362 497.72C174.986 502.56 178.107 501.903 177.574 496.808C177.108 492.335 176.307 487.914 175.96 483.413C175.177 473.227 174.109 462.362 174.85 452.167C175.165 452.759 178.114 458.254 178.808 457.843C178.599 457.972 175.407 450.08 174.142 450.422Z" fill="#89C5CC"/>
<path opacity="0.5" fill-rule="evenodd" clip-rule="evenodd" d="M209.114 443.736C202.821 443.833 196.53 443.948 190.24 444.127C185.238 444.27 177.38 443.425 172.794 445.589C167.332 448.164 169.923 453.903 175.053 454.024C179.591 454.133 184.43 453.08 189.009 452.919C201.377 452.484 213.767 452.391 226.14 452.281C237.332 452.182 248.998 453.41 260.091 451.681C261.736 466.706 257.286 481.794 258.8 496.991C259.034 499.35 258.929 502.682 261.85 503.219C265.537 503.898 265.688 500.143 265.827 497.455C266.227 489.778 266.01 482.095 266.558 474.408C267.064 467.284 268.061 460.004 267.218 452.869C266.182 444.089 262.09 444.793 254.859 444.428C239.584 443.658 224.405 443.506 209.114 443.736Z" fill="#89C5CC"/>
<path opacity="0.5" fill-rule="evenodd" clip-rule="evenodd" d="M188.028 497.086C184.821 497.17 179.497 496.154 177.443 499.315C175.306 502.605 177.841 505.474 180.949 506.149C184.628 506.948 189.425 505.853 193.243 505.841C197.219 505.828 201.197 505.875 205.173 505.89C222.219 505.958 239.339 506.224 256.374 505.5C258.753 505.398 265.505 506.218 267.151 503.871C268.613 501.791 267.591 499.924 265.666 498.864C262.509 497.124 256.025 497.786 252.514 497.648C248.177 497.478 243.834 497.422 239.495 497.353C222.369 497.081 205.153 496.651 188.028 497.086Z" fill="#89C5CC"/>
<path opacity="0.5" fill-rule="evenodd" clip-rule="evenodd" d="M202.448 512.293C196.069 512.405 189.262 512.117 182.946 513.112C177.393 513.987 176.709 519.508 182.687 520.153C188.181 520.747 194.842 519.638 200.362 519.273C202.323 519.143 204.603 519.328 205.542 517.099C206.523 514.77 204.648 512.536 202.448 512.293Z" fill="#89C5CC"/>
<path opacity="0.5" fill-rule="evenodd" clip-rule="evenodd" d="M250.676 512.872C247.271 512.96 237.326 511.454 235.64 515.454C232.831 522.111 246.295 519.583 248.878 519.485C252.134 519.361 264.821 521.317 264.824 515.987C264.826 510.761 253.794 512.794 250.676 512.872Z" fill="#89C5CC"/>
<path opacity="0.5" fill-rule="evenodd" clip-rule="evenodd" d="M56.9605 545.959C56.9687 558.071 56.2357 570.298 57.3102 582.38C57.7545 587.377 57.6783 596.95 60.4929 601.186C62.4908 604.193 65.2618 603.983 66.3532 600.372C67.0826 597.958 65.9159 593.131 65.7857 590.548C65.6603 588.07 65.5139 585.593 65.4024 583.113C65.116 576.727 65.1387 570.352 65.2241 563.962C65.2973 558.481 66.5803 551.229 65.3704 545.959C64.2425 541.047 56.9605 539.898 56.9605 545.959Z" fill="#69A1AC"/>
<path opacity="0.5" fill-rule="evenodd" clip-rule="evenodd" d="M175.337 535.303C154.902 535.83 134.42 535.36 114.003 536.399C103.934 536.912 93.9041 538.039 83.8854 539.161C78.9631 539.714 74.0438 540.283 69.1302 540.906C67.6475 541.094 55.3264 541.584 59.9606 546.402C61.9841 548.507 68.4234 546.31 70.9714 545.999C75.9046 545.4 80.8478 544.878 85.788 544.341C95.1888 543.318 104.601 542.35 114.042 541.812C136.277 540.545 158.603 540.925 180.86 540.081C186.881 539.853 192.882 539.689 198.905 539.933C200.488 539.996 212.109 540.604 207.063 536.189C204.677 534.102 195.681 535.179 192.7 535.116C186.912 534.994 181.122 535.154 175.337 535.303Z" fill="#69A1AC"/>
<path opacity="0.5" fill-rule="evenodd" clip-rule="evenodd" d="M203.195 555.71C203.094 550.114 202.993 544.518 202.745 538.926C202.484 533.037 210.285 532.146 212.597 536.912C214.264 540.344 213.97 546.182 213.719 551.187C213.618 553.203 213.523 555.085 213.567 556.618C213.666 560.132 213.918 563.768 214.172 567.45C214.813 576.717 215.476 586.29 213.791 595.038C212.972 599.29 209.486 601.523 207.164 599.207C207.161 599.211 207.158 599.216 207.154 599.221C206.281 600.544 203.564 600.542 201.562 600.539C201.011 600.539 200.514 600.538 200.126 600.565C194.642 600.949 189.261 601.596 183.825 602.433C172.997 604.102 162.263 605.128 151.318 605.406C143.89 605.596 136.453 605.659 129.015 605.723C114.769 605.844 100.516 605.965 86.3165 606.968C81.529 607.306 76.8141 607.886 72.105 608.812C71.7042 608.891 71.259 608.993 70.7852 609.102C67.2838 609.902 62.2149 611.062 61.8685 606.03C61.4569 600.057 74.0441 599.274 80.5216 598.872C81.5105 598.81 82.3571 598.758 82.9932 598.697C102.661 596.816 122.638 597.107 142.39 597.396C143.347 597.409 144.304 597.423 145.26 597.437C146.8 597.459 148.341 597.485 149.882 597.511C158.339 597.655 166.786 597.798 175.239 597.266C179.086 597.024 182.985 596.899 186.889 596.775C193.119 596.577 199.366 596.377 205.46 595.698C204.54 592.034 204.38 587.711 204.228 583.636C204.169 582.049 204.112 580.501 204.011 579.042C203.477 571.276 203.335 563.493 203.195 555.71Z" fill="#69A1AC"/>
<path opacity="0.5" fill-rule="evenodd" clip-rule="evenodd" d="M219.734 543.24C216.973 543.625 214.671 546.056 215.903 549.137C217.455 553.018 222.079 551.501 225.133 551.255C234.842 550.473 244.979 552.036 254.571 550.857C257.19 550.535 260.989 549.068 258.638 545.448C256.87 542.728 250.429 543.205 247.691 542.945C238.327 542.053 229.086 542.292 219.734 543.24Z" fill="#C1DEE2"/>
<path opacity="0.5" fill-rule="evenodd" clip-rule="evenodd" d="M236.119 560.169C232.355 560.429 223.59 560.224 222.003 564.63C219.157 572.533 230.304 569.748 233.699 569.298C237.641 568.777 246.937 570.174 249.036 566.243C252.79 559.211 239.422 559.934 236.119 560.169Z" fill="#C1DEE2"/>
<path opacity="0.5" fill-rule="evenodd" clip-rule="evenodd" d="M226.437 577.513C224.651 579.35 224.648 582.631 226.437 584.47C228.627 586.72 233.4 586.253 236.277 586.416C240.291 586.647 251.82 588.83 253.813 583.97C256.502 577.412 246.062 577.549 242.629 577.177C238.66 576.748 229.727 574.129 226.437 577.513Z" fill="#C1DEE2"/>
<path opacity="0.5" fill-rule="evenodd" clip-rule="evenodd" d="M85.7316 465.258C85.7316 472.308 96.4397 472.308 96.4397 465.258C96.4397 458.245 85.7316 458.138 85.7316 465.258Z" fill="#89C5CC"/>
<path opacity="0.5" fill-rule="evenodd" clip-rule="evenodd" d="M106.043 465.338C106.043 473.398 118.239 473.381 118.239 465.338C118.239 457.306 106.043 457.223 106.043 465.338Z" fill="#89C5CC"/>
<path opacity="0.5" fill-rule="evenodd" clip-rule="evenodd" d="M93.7554 476.055C87.8266 477.738 93.2884 482.905 96.0414 484.085C100.417 485.961 106.388 487.345 110.764 484.531C112.505 483.412 113.919 481.925 112.643 479.753C111.283 477.439 109.422 478.469 107.352 478.681C104.729 478.953 102.61 478.911 100.078 478.046C98.188 477.401 95.8166 475.471 93.7554 476.055Z" fill="#89C5CC"/>
<path opacity="0.5" fill-rule="evenodd" clip-rule="evenodd" d="M201.297 465.704C201.297 470.473 208.497 470.473 208.497 465.704C208.497 460.934 201.297 460.934 201.297 465.704Z" fill="#89C5CC"/>
<path opacity="0.5" fill-rule="evenodd" clip-rule="evenodd" d="M217.221 466.421C217.221 471.72 225.221 471.721 225.221 466.421C225.221 461.123 217.221 461.123 217.221 466.421Z" fill="#89C5CC"/>
<path opacity="0.5" fill-rule="evenodd" clip-rule="evenodd" d="M216.629 477.92C212.427 478.478 200.273 479.744 199.593 485.071C198.545 493.289 211.861 486.637 214.9 485.992C218.772 485.17 222.228 485.385 226.093 485.545C228.215 485.631 231.037 485.986 230.814 482.662C230.45 477.204 220.302 477.437 216.629 477.92Z" fill="#89C5CC"/>
<path opacity="0.5" fill-rule="evenodd" clip-rule="evenodd" d="M110.979 553.702C107.933 554.538 103.949 559.952 106.044 563.267C109.48 568.702 110.996 560.357 112.434 559.553C115.05 558.092 117.174 563.433 119.909 560.631C124.223 556.21 113.695 552.954 110.979 553.702Z" fill="#69A1AC"/>
<path opacity="0.5" fill-rule="evenodd" clip-rule="evenodd" d="M145.877 549.685C142.266 549.718 134.641 554.977 134.101 558.86C133.78 561.167 135.267 563.384 137.686 563.415C140.979 563.456 142.025 559.053 144.88 558.132C147.959 557.139 147.502 559.427 150.162 560.612C152.108 561.48 154.542 561.117 155.217 558.656C156.494 554.015 149.589 549.611 145.877 549.685Z" fill="#69A1AC"/>
<path opacity="0.5" fill-rule="evenodd" clip-rule="evenodd" d="M118.23 571.917C112.452 575.398 121.958 582.861 125.254 583.795C130.228 585.203 140.241 582.573 141.42 576.324C141.89 573.837 140.377 571.584 137.707 572.029C135.51 572.396 134.101 575.232 132.065 576.247C129.317 577.616 126.874 577.524 124.539 575.461C122.637 573.78 121.619 569.884 118.23 571.917Z" fill="#69A1AC"/>
<path opacity="0.5" fill-rule="evenodd" clip-rule="evenodd" d="M122.417 623.358C117.255 624.49 112.008 623.73 106.822 624.795C101.533 625.88 98.3725 627.935 93.4589 625.865C93.2278 625.764 92.9972 625.665 92.7667 625.564C88.9636 623.879 84.9776 623.381 80.9968 626.066C78.6411 627.654 71.4898 633.15 72.3516 636.503C74.2195 643.772 82.2664 632.373 84.3183 631.262C88.2311 629.143 90.9139 631.85 94.9422 632.614C99.7675 633.528 103.65 630.907 108.195 629.862C113.512 628.641 119.492 628.216 124.9 627.561C127.037 627.304 135.13 629.041 135.861 626.307C137.116 621.61 124.446 622.916 122.417 623.358Z" fill="#C1DEE2"/>
<path opacity="0.5" fill-rule="evenodd" clip-rule="evenodd" d="M159.656 637.999C159.994 638.261 159.723 638.05 159.656 637.999V637.999ZM174.112 623.074C178.53 622.613 192.668 619.367 195.571 624.062C197.462 627.121 194.461 638.408 191.6 639.869C189.311 641.035 183.983 639.745 181.473 639.654C176.801 639.485 172.121 639.411 167.455 639.11C165.89 639.01 160.856 639.306 159.629 637.881C158.181 636.2 158.245 627.235 157.904 625.012C161.967 626.365 169.864 623.518 174.112 623.074ZM183.547 618.47C177.889 618.723 172.23 619.159 166.613 619.94C163.483 620.376 160.31 621.532 157.418 622.081C156.486 622.258 154.973 621.767 153.831 622.335C150.49 623.994 153.415 635.215 154.22 638.211C155.458 642.817 158.571 643.562 162.934 643.995C168.68 644.569 174.544 644.388 180.309 644.316C185.865 644.245 193.357 645.512 196.475 639.779C198.491 636.071 200.652 627.439 198.929 623.308C196.663 617.871 188.201 618.269 183.547 618.47Z" fill="#C1DEE2"/>
<path opacity="0.5" fill-rule="evenodd" clip-rule="evenodd" d="M246.922 641.083C246.618 641.482 246.618 641.482 246.922 641.083V641.083ZM248.162 639.546C248.068 639.691 247.633 640.163 248.162 639.546V639.546ZM234.665 639.123C237.16 638.64 239.656 638.162 242.153 637.693C239.789 641.098 237.298 639.691 233.257 639.395C233.727 639.303 234.197 639.213 234.665 639.123ZM222.764 637.917C223.396 637.701 224.028 637.483 224.661 637.265C224.641 637.76 224.745 638.224 224.97 638.655C223.888 638.536 222.807 638.406 221.726 638.269C222.072 638.152 222.419 638.035 222.764 637.917ZM217.249 633.729C217.214 632.837 218.519 633.45 219.268 633.389C217.825 634.697 217.151 634.81 217.249 633.729ZM236.973 623.599C237.163 623.35 237.415 623.362 237.728 623.636C237.386 623.755 236.071 624.328 236.973 623.599ZM249.764 622.051C249.798 622.051 250.508 623.037 249.764 622.051V622.051ZM249.406 621.728C249.591 621.875 249.591 621.875 249.406 621.728V621.728ZM247.808 621.537C250.424 621.991 250.226 625.147 247.808 621.537V621.537ZM217.082 621.322C216.551 621.776 216.733 621.335 217.082 621.322V621.322ZM227.084 614.602C222.644 614.868 214.493 614.6 210.785 617.032C205.946 620.208 208.492 631.14 208.926 635.932C209.565 643.015 212.807 645.032 219.293 645.776C227.035 646.663 234.988 646.828 242.77 646.618C249.778 646.429 253.769 643.95 255.053 636.362C255.446 634.041 256.443 630.449 256.412 628.225C256.391 626.683 255.643 625.979 255.361 624.668C253.751 617.2 251.059 616.315 243.617 615.989C238.139 615.749 232.459 614.313 227.084 614.602Z" fill="#89C5CC"/>
</g>
<g opacity="0.5">
<path opacity="0.5" fill-rule="evenodd" clip-rule="evenodd" d="M462.287 443.041C473.577 443.288 486.384 449.714 484.599 463.325C483.291 473.296 474.897 481.39 465.174 482.089C454.724 482.838 443.675 474.591 442.255 463.649C440.658 451.342 451.249 442.795 462.287 443.041ZM456.752 437.5C452.174 438.202 447.801 440.674 443.771 442.888C442.233 443.734 434.435 448.888 440.552 450.169C425.814 474.61 460.497 497.314 479.998 481.429C488.756 474.295 493.366 460.77 487.705 450.183C481.851 439.233 467.967 435.767 456.752 437.5Z" fill="#89C5CC"/>
<path opacity="0.5" fill-rule="evenodd" clip-rule="evenodd" d="M454.053 458.305C454.053 462.871 460.943 462.871 460.943 458.305C460.943 453.74 454.053 453.74 454.053 458.305Z" fill="#89C5CC"/>
<path opacity="0.5" fill-rule="evenodd" clip-rule="evenodd" d="M466.828 459.036C466.828 463.985 474.3 463.985 474.3 459.036C474.3 454.088 466.828 454.088 466.828 459.036Z" fill="#89C5CC"/>
<path opacity="0.5" fill-rule="evenodd" clip-rule="evenodd" d="M458.207 468.824C457.201 472.579 468.665 474.505 469.047 470.16C469.229 468.083 458.906 466.205 458.207 468.824Z" fill="#89C5CC"/>
<path opacity="0.5" fill-rule="evenodd" clip-rule="evenodd" d="M491.81 466.504C505.001 464.876 518.6 465.629 531.854 466.018C535.171 466.117 538.488 466.212 541.805 466.269C543.913 466.306 548.468 467.347 550.31 466.331C557.847 462.175 543.06 460.164 540.967 459.973C527.784 458.858 507.439 458.46 494.216 458.987C490.305 459.142 489.46 466.793 491.81 466.504Z" fill="#89C5CC"/>
<path opacity="0.5" fill-rule="evenodd" clip-rule="evenodd" d="M551.164 533.934C551.277 519.722 551.773 505.413 552.835 491.243C553.267 485.468 553.787 479.7 554.217 473.924C554.42 471.204 555.359 467.394 553.805 465.007C552.203 462.547 548.688 462.036 546.569 464.216C544.034 467.591 544.77 473.255 544.455 477.339C543.97 483.616 543.385 489.89 543.093 496.182C542.531 508.358 542.399 520.747 543.351 532.908C543.801 538.646 544.774 544.245 546.071 549.841C546.661 552.389 551.355 563.736 550.369 565.301C548.839 567.728 537.534 566.811 535.081 566.878C528.787 567.052 522.492 567.165 516.197 567.289C510.808 567.394 505.419 567.47 500.029 567.519C497.889 567.538 485.315 567.147 488.104 570.41C456.912 572.645 425.125 568.913 394.123 567.634C392.557 567.568 389.995 567.111 387.63 566.979C387.347 565.805 387.114 564.756 387.056 564.025C386.649 558.902 386.543 553.761 386.101 548.639C385.293 539.266 383.725 529.989 382.793 520.633C381.863 511.286 381.957 501.912 381.414 492.543C381.321 490.937 381.102 477.787 377.875 474.591C379.405 475.187 381.873 475.266 383.293 475.148C394.793 474.194 406.209 472.138 417.611 470.375C420.873 469.871 428.275 470.228 430.981 468.552C433.322 467.1 434.249 462.01 430.176 462.422C418.806 463.675 407.499 465.618 396.22 467.532C393.202 468.043 390.193 468.59 387.184 469.15C385.175 469.523 379.871 469.495 378.313 470.741C376.42 472.253 376.219 473.282 376.861 473.966C375.969 473.714 374.9 474.111 373.616 475.431C371.188 478.68 373.471 486.681 373.76 490.49C374.107 495.06 374.279 499.636 374.48 504.214C374.871 513.072 375.773 521.807 377.159 530.56C378.712 540.363 380.034 550.208 381.591 560.009C381.995 562.561 382.524 565.05 383.199 567.515C379.004 569.721 381.856 573.23 385.182 573.852C385.206 573.857 385.231 573.86 385.255 573.865C386.292 576.466 387.743 578.875 388.875 575.39C388.962 575.122 389.003 574.794 389.013 574.424C397.605 575.424 407.051 574.803 415.51 575.158C433.835 575.929 452.272 577.084 470.615 576.498C477.877 576.266 485.161 575.603 492.361 574.607C496.58 574.023 500.816 573.327 504.967 572.359C505.264 572.289 505.716 572.217 506.238 572.128C506.324 572.126 506.41 572.123 506.49 572.123C512.848 572.024 519.199 571.849 525.55 571.577C530.882 571.349 536.237 571.232 541.551 570.715C544.852 570.394 551.828 570.454 553.854 567.04C555.696 563.937 552.616 555.941 552.179 552.455C551.41 546.315 551.115 540.118 551.164 533.934Z" fill="#C1DEE2"/>
<path opacity="0.5" fill-rule="evenodd" clip-rule="evenodd" d="M486.745 492.897C481.665 493.344 476.969 495.797 471.843 495.828C467.54 495.852 463.305 494.53 458.978 494.726C453.903 494.953 451.111 498.328 446.666 499.458C443.127 500.356 440.897 497.569 437.785 496.338C433.855 494.782 430.951 495.585 427.583 497.939C425.107 499.668 419.335 503.549 419.38 507.048C419.513 517.645 431.535 503.007 433.958 502.829C437.178 502.593 440.776 506.368 444.202 506.583C448.732 506.868 451.636 503.865 455.807 502.771C460.025 501.665 464.585 503.02 468.814 503.441C473.638 503.92 477.861 502.815 482.529 501.631C487.052 500.483 490.907 500.544 495.503 501.507C498.605 502.158 506.334 505.94 507.69 501.077C509.538 494.454 490.295 492.586 486.745 492.897Z" fill="#89C5CC"/>
<path opacity="0.5" fill-rule="evenodd" clip-rule="evenodd" d="M488.291 513.107C477.884 514.146 467.412 515.057 456.957 515.348C452.429 515.476 435.021 513.479 436.564 519.397C437.888 524.47 461.577 521.275 466.402 520.889C471.729 520.464 477.048 519.869 482.348 519.179C484.226 518.935 488.762 519.187 490.089 517.568C491.351 516.022 490.729 512.857 488.291 513.107Z" fill="#89C5CC"/>
<path opacity="0.5" fill-rule="evenodd" clip-rule="evenodd" d="M416.492 540.055C416.256 540.158 416.256 540.158 416.492 540.055V540.055ZM418.688 540.024C421.283 539.941 420.726 538.534 423.315 539.267C424.508 539.604 424.631 539.103 425.557 540.277C427.362 542.566 425.662 547.55 423.882 549.395C417.292 556.225 409.382 540.328 418.688 540.024ZM418.688 533.323C400.646 533.946 408.194 562.608 423.898 556.757C430.384 554.342 434.46 543.456 430.645 537.338C428.79 534.363 426.424 533.833 423.315 533.627C422.593 533.579 421.685 534.658 421.235 534.609C420.164 534.493 420.264 533.262 418.688 533.323Z" fill="#89C5CC"/>
<path opacity="0.5" fill-rule="evenodd" clip-rule="evenodd" d="M461.835 541.037C461.513 540.935 467.531 542.735 466.874 542.03C468.279 543.534 466.389 547.088 464.799 547.707C460.949 549.211 458.79 543.054 461.835 541.037ZM464.506 533.265C458.856 534.088 454.497 536.507 453.724 542.968C453.011 548.931 456.93 554.97 463.109 555.086C476.581 555.34 476.99 531.474 464.506 533.265Z" fill="#89C5CC"/>
<path opacity="0.5" fill-rule="evenodd" clip-rule="evenodd" d="M526.001 541.298C526.79 551.888 516.112 542.195 526.001 541.298V541.298ZM521.419 529.97C520.484 531.611 521.281 533.353 522.69 534.307C510.095 537.045 512.948 556.536 525.764 553.655C532.282 552.191 533.48 545.144 532.509 539.324C532.047 536.556 525.341 523.072 521.419 529.97Z" fill="#89C5CC"/>
</g>
<path opacity="0.5" fill-rule="evenodd" clip-rule="evenodd" d="M551.215 540.139C547.461 540.826 538.586 545.09 538.662 549.669C538.782 556.819 546.326 549.01 548.005 547.96C557.018 542.319 568.693 549.628 578.08 551.184C582.383 551.897 590.801 553.215 594.602 550.249C601.361 544.975 585.729 546.296 583.737 546.083C572.916 544.934 562.15 538.131 551.215 540.139Z" fill="#C1DEE2"/>
<g opacity="0.5">
<path opacity="0.5" fill-rule="evenodd" clip-rule="evenodd" d="M728.554 489.875C728.551 497.189 728.191 504.656 729.503 511.883C729.9 514.072 730.213 518.262 732.457 519.397C734.711 520.537 736.897 519.257 737.457 516.88C738.111 514.115 736.678 509.976 736.533 507.074C736.334 503.107 736.32 499.137 736.319 495.167C736.317 492.299 737.234 487.686 733.942 486.211C731.496 485.113 728.554 487.154 728.554 489.875Z" fill="#C1DEE2"/>
<path opacity="0.5" fill-rule="evenodd" clip-rule="evenodd" d="M841.006 478.305C817.44 480.738 793.533 481.243 769.881 482.512C758.949 483.099 745.735 482.35 735.435 486.702C733.523 487.511 726.673 492.009 732.234 493.841C733.967 494.412 735.729 492.491 737.152 491.848C739.522 490.778 742.266 490.447 744.794 490.028C766.286 486.479 788.766 487.097 810.479 485.438C816.042 485.013 821.609 484.576 827.161 484.014C831.127 483.613 839.464 480.673 843.124 482.176C849.38 484.746 849.234 501.442 849.356 507.183C849.421 510.153 846.618 520.812 852.19 519.731C856.648 518.866 855.035 507.793 854.687 504.764C853.775 496.823 852.22 477.137 841.006 478.305Z" fill="#C1DEE2"/>
<path opacity="0.5" fill-rule="evenodd" clip-rule="evenodd" d="M849.697 519.347C829.227 521.247 808.285 519.382 787.729 520.13C776.956 520.522 766.193 521.147 755.417 521.512C750.757 521.671 746.092 521.677 741.43 521.712C739.2 521.728 729.052 523.118 735.329 527.664C738.109 529.677 746.968 528.055 750.157 528.017C754.949 527.959 759.737 527.754 764.524 527.561C775.613 527.115 786.696 526.497 797.791 526.189C808.404 525.892 819.023 525.829 829.636 525.534C834.916 525.386 840.269 525.22 845.503 524.428C846.684 524.249 850.52 524.106 851.341 522.752C852.116 521.471 851.571 519.16 849.697 519.347Z" fill="#89C5CC"/>
<path opacity="0.5" fill-rule="evenodd" clip-rule="evenodd" d="M749.09 503.542C748.98 503.81 748.98 503.81 749.09 503.542V503.542ZM757.954 500.771C758.277 500.911 758.277 500.911 757.954 500.771V500.771ZM757.539 500.693C762.316 505.701 754.97 511.678 750.495 506.792C745.745 501.604 754.464 500.71 757.539 500.693ZM752.472 493.118C736.018 496.129 741.843 518.681 757.212 515.422C763.96 513.992 767.818 507.002 765.495 500.288C764.588 497.663 762.61 494.784 759.857 493.958C758.484 493.546 757.269 494.194 755.961 494.042C754.713 493.898 754.021 492.831 752.472 493.118Z" fill="#C1DEE2"/>
<path opacity="0.5" fill-rule="evenodd" clip-rule="evenodd" d="M815.447 499.466C805.525 499.498 795.6 499.931 785.679 500.125C782.636 500.183 774.814 498.783 774.803 503.717C774.789 508.988 783.502 507.042 786.4 506.971C796.242 506.729 806.108 506.285 815.909 505.322C818.386 505.078 826.957 505.498 826.948 502.036C826.938 498.367 817.446 499.466 815.447 499.466Z" fill="#C1DEE2"/>
<path opacity="0.5" fill-rule="evenodd" clip-rule="evenodd" d="M839.147 533.872C814.606 534.549 790.102 534.785 765.582 536.077C756.409 536.56 747.25 536.92 738.065 536.92C736.296 536.92 732.733 536.215 731.069 537.36C726.55 540.468 731.695 543.135 734.64 543.303C754.785 544.452 775.22 541.591 795.352 540.945C807.139 540.568 818.927 540.456 830.706 539.839C833.919 539.671 837.134 539.476 840.342 539.219C842.187 539.072 847.066 539.476 848.557 538.365C855.069 533.519 841.341 533.811 839.147 533.872Z" fill="#89C5CC"/>
<path opacity="0.5" fill-rule="evenodd" clip-rule="evenodd" d="M726.55 546.212C726.318 552.755 726.295 559.184 727.128 565.691C727.455 568.251 727.605 571.157 730.524 571.808C733.174 572.398 734.518 570.337 735.067 568.051C736.408 562.469 735.229 554.436 735.212 548.638C735.205 545.77 735.202 542.561 731.758 541.913C729.129 541.418 726.65 543.371 726.55 546.212Z" fill="#89C5CC"/>
<path opacity="0.5" fill-rule="evenodd" clip-rule="evenodd" d="M865.159 561.986C825.433 564.139 785.76 566.018 746.007 567.746C742.907 567.881 718.822 567.611 727.242 576.248C729.842 578.916 736.543 577.109 739.906 576.94C744.96 576.684 750.017 576.489 755.072 576.225C775.11 575.175 795.202 574.893 815.225 573.716C826.245 573.068 837.239 572.054 848.201 570.735C853.415 570.107 859.888 570.172 864.771 568.071C867.284 566.99 869.994 561.722 865.159 561.986Z" fill="#89C5CC"/>
<path opacity="0.5" fill-rule="evenodd" clip-rule="evenodd" d="M842.317 528.795C839.296 531.889 840.849 537.993 841.077 541.818C841.39 547.08 841.771 552.346 842.41 557.58C842.826 560.98 842.605 566.271 844.369 569.208C846.435 572.648 850.982 572.266 852.85 568.944C854.502 566.005 853.665 559.823 853.623 556.567C853.564 552.063 853.291 547.553 853.032 543.058C852.814 539.303 853.642 533.283 851.632 530.069C849.59 526.802 845.148 525.899 842.317 528.795Z" fill="#89C5CC"/>
<path opacity="0.5" fill-rule="evenodd" clip-rule="evenodd" d="M751.518 552.806C751.163 553.087 751.163 553.087 751.518 552.806V552.806ZM758.573 551.897C765.157 553.258 754.512 561.163 751.147 555.738C750.622 554.891 750.348 553.848 751.192 553.112C751.961 552.439 752.445 553.629 753.172 553.31C754.425 552.759 757.236 551.845 758.573 551.897ZM757.665 545.407C753.17 545.772 746.99 546.058 744.765 550.692C741.777 556.916 746.888 563.01 752.802 563.957C758.493 564.869 766.988 561.628 767.444 554.803C767.812 549.3 762.722 544.985 757.665 545.407Z" fill="#89C5CC"/>
<path opacity="0.5" fill-rule="evenodd" clip-rule="evenodd" d="M795.192 548.698C790.539 548.775 781.392 547.361 777.338 549.693C773.327 552.001 775.116 556.111 778.775 557.094C781.194 557.743 785.148 556.695 787.666 556.59C790.979 556.451 794.294 556.421 797.61 556.373C803.184 556.296 808.756 556.362 814.332 556.362C820.025 556.362 825.818 556.522 831.501 556.091C838.695 555.546 838.5 550.008 831.466 549.316C819.518 548.14 807.18 548.505 795.192 548.698Z" fill="#89C5CC"/>
<path opacity="0.5" fill-rule="evenodd" clip-rule="evenodd" d="M783.306 610.727C783.306 613.357 785.576 610.727 785.56 610.727C785.576 610.727 783.306 608.095 783.306 610.727Z" fill="#89C5CC"/>
<path opacity="0.5" fill-rule="evenodd" clip-rule="evenodd" d="M731.95 589.544C732.097 597.192 732.193 604.848 732.51 612.491C732.612 614.908 731.938 619.627 734.786 620.859C737.957 622.231 738.943 618.812 739.309 616.495C740.465 609.158 739.331 600.779 739.22 593.353C739.182 590.861 739.707 587.39 736.954 586.147C734.708 585.132 731.905 587.015 731.95 589.544Z" fill="#89C5CC"/>
<path opacity="0.5" fill-rule="evenodd" clip-rule="evenodd" d="M854.262 589.664C854.45 590.12 854.45 590.12 854.262 589.664V589.664ZM854.527 589.587C854.68 589.652 855.295 589.918 854.527 589.587V589.587ZM794.443 583.404C783.026 583.589 771.6 583.728 760.189 584.23C755.32 584.445 750.393 584.619 745.54 585.091C742.102 585.426 733.564 585.565 731.334 588.453C726.733 594.416 736.489 592.789 738.591 592.305C742.416 591.424 746.319 591.142 750.226 590.929C758.703 590.469 767.184 590.224 775.672 590.048C798.691 589.571 821.725 589.645 844.748 589.538C846.976 589.527 851.005 588.605 853.063 589.533C855.126 590.461 855.01 592.747 855.224 595.399C855.508 598.929 853.245 605.655 854.97 608.624C857.645 613.23 861.536 609.319 862.131 605.961C862.953 601.322 861.65 595.752 860.375 591.317C858.576 585.061 856.078 584.812 850.194 584.323C843.318 583.752 836.468 583.406 829.57 583.34C817.863 583.229 806.149 583.218 794.443 583.404Z" fill="#89C5CC"/>
<path opacity="0.5" fill-rule="evenodd" clip-rule="evenodd" d="M839.604 615.022C814.838 617.979 789.368 616.236 764.471 616.341C758.416 616.366 752.357 616.417 746.308 616.718C743.113 616.877 735.541 615.971 733.352 618.506C728.739 623.849 737.049 624.625 740.083 624.405C746.217 623.955 752.366 623.752 758.517 623.703C780.178 623.53 801.964 624.57 823.608 623.471C832.677 623.01 841.542 621.415 850.442 619.632C852.414 619.238 865.912 616.598 858.215 613.436C853.667 611.567 844.382 614.448 839.604 615.022Z" fill="#89C5CC"/>
<path opacity="0.5" fill-rule="evenodd" clip-rule="evenodd" d="M767.296 605.241C767.123 605.469 767.123 605.469 767.296 605.241V605.241ZM767.129 605.201C767.07 605.365 766.888 605.769 767.129 605.201V605.201ZM765.567 603.13C765.603 603.178 765.751 603.372 765.567 603.13V603.13ZM765.507 603.114C766.103 603.846 766.505 604.663 766.712 605.563C761.581 606.993 759.603 602.724 765.507 603.114ZM765.182 602.915C765.185 602.916 765.906 603.228 765.182 602.915V602.915ZM756.754 596.555C753.433 600.807 750.691 605.763 754.831 610.621C758.534 614.965 765.981 615.525 770.68 612.625C775.519 609.638 775.101 603.348 771.725 599.242C769.552 596.598 767.79 596.672 764.636 596.24C762.489 595.947 758.575 594.229 756.754 596.555Z" fill="#89C5CC"/>
<path opacity="0.5" fill-rule="evenodd" clip-rule="evenodd" d="M791.082 604.426C791.082 610.089 814.859 607.652 819.09 607.645C822.634 607.64 844.06 609.65 842.522 603.822C841.258 599.033 820.153 601.414 815.659 601.406C811.774 601.401 791.082 598.658 791.082 604.426Z" fill="#89C5CC"/>
</g>
<g opacity="0.5">
<path opacity="0.5" fill-rule="evenodd" clip-rule="evenodd" d="M480.662 657.484C492.57 659.262 504.957 665.022 504.853 679.276C504.765 691.261 494.992 704.015 482.44 703.299C471.145 702.656 460.509 689.953 459.094 679.067C458.361 673.428 459.733 667.356 462.959 662.716C467.185 656.638 473.892 656.647 480.662 657.484ZM475.037 649.737C466.424 649.785 460.123 652.988 454.793 659.752C452.881 662.176 450.657 664.786 449.202 667.534C447.842 670.1 448.081 676.625 452.746 673.565C451.597 686.198 458.776 698.458 469.096 704.931C480.314 711.968 492.994 710.596 502.33 700.733C510.876 691.705 513.884 676.456 507.632 665.291C501.383 654.132 486.904 649.617 475.037 649.737Z" fill="#89C5CC"/>
<path opacity="0.5" fill-rule="evenodd" clip-rule="evenodd" d="M500.863 646.35C495.349 650.507 490.314 655.98 486.133 661.531C482.045 666.956 479.343 673.73 474.432 678.462C471.953 675.685 469.048 668.183 464.101 671.159C459.996 673.629 462.639 677.875 464.639 680.664C469.801 687.864 475.533 690.762 482.154 683.647C488.167 677.187 491.582 668.568 497.204 661.736C499.669 658.738 503.48 655.763 505.443 652.453C507.223 649.452 505.022 643.208 500.863 646.35Z" fill="#89C5CC"/>
</g>
<g opacity="0.5">
<path opacity="0.5" fill-rule="evenodd" clip-rule="evenodd" d="M709.249 195.655C709.258 196.221 709.265 196.753 709.277 197.244C709.535 207.942 709.386 219.188 708.54 229.861C708.248 233.547 705.641 238.217 702.667 233.137C701.359 230.903 701.544 226.317 701.678 222.943C701.714 222.038 701.746 221.221 701.746 220.559C701.744 216.795 701.936 212.992 702.129 209.177C702.506 201.722 702.885 194.227 701.812 186.905C701.79 186.757 701.769 186.615 701.75 186.477C701.283 183.258 701.252 183.035 697.808 183.108C696.372 183.139 694.937 183.179 693.502 183.219C692.091 183.258 690.679 183.298 689.267 183.327C687.864 183.358 686.462 183.385 685.061 183.414C680.664 183.5 676.267 183.588 671.871 183.753C671.138 183.781 669.769 183.957 668.043 184.18C664.589 184.625 659.703 185.256 655.592 185.252C655.593 185.27 655.594 185.288 655.596 185.306C655.598 185.34 655.601 185.372 655.601 185.405C655.647 187.74 655.062 190.344 654.475 192.962C653.983 195.155 653.49 197.356 653.363 199.412C653.061 204.306 653.058 209.252 653.055 214.199C653.05 220.221 653.046 226.244 652.504 232.172C652.478 232.462 652.461 232.767 652.445 233.077C652.444 233.118 652.441 233.159 652.439 233.2C652.626 233.171 652.806 233.15 652.98 233.138C655.944 232.945 658.932 232.928 661.916 232.91C663.562 232.901 665.205 232.892 666.842 232.852C669.784 232.783 672.762 232.787 675.75 232.789C682.348 232.797 689.005 232.805 695.459 232.023C697.366 231.769 698.032 234.282 697.177 235.586C696.411 236.753 694.303 236.943 692.76 237.08C692.368 237.116 692.012 237.147 691.724 237.191C687.561 237.825 683.343 238.047 679.143 238.239C674.732 238.439 670.316 238.589 665.903 238.715C664.852 238.746 663.45 238.892 661.896 239.053C657.79 239.479 652.623 240.016 650.059 238.823C647.302 237.54 647.367 236.117 648.492 235.014C647.998 233.897 647.92 232.268 647.859 230.992C647.836 230.505 647.815 230.07 647.775 229.735C647.164 224.658 646.794 219.645 646.785 214.525C646.768 204.494 646.788 194.076 649.486 184.367C648.405 183.88 647.754 183.163 647.756 182.129C647.769 176.92 663.534 177.185 671.029 177.311C672.369 177.333 673.444 177.351 674.118 177.333C679.577 177.186 685.038 177.167 690.498 177.198C691.652 177.204 692.936 177.126 694.267 177.046C697.097 176.875 700.137 176.692 702.581 177.275C709.002 178.808 709.156 189.325 709.249 195.655Z" fill="#89C5CC"/>
<path opacity="0.5" fill-rule="evenodd" clip-rule="evenodd" d="M749.411 178.417C755.372 178.092 761.338 178.019 767.307 177.995C773.627 177.963 779.955 178.079 786.273 178.279L786.419 178.284C789.218 178.37 804.776 178.851 797.628 182.838C797.212 183.071 796.743 183.264 796.23 183.427C796.533 185.273 796.57 187.178 796.521 188.097C796.337 191.579 796.215 195.066 796.094 198.552C796.011 200.914 795.928 203.277 795.826 205.638C795.545 212.162 795.277 218.687 795.059 225.214C795.031 226.016 795.073 227.063 795.119 228.231C795.271 232.092 795.475 237.267 793.436 239.18C791.645 240.859 790.423 240.523 789.599 239.381C784.477 240.912 773.96 240.414 768.672 240.164C767.397 240.104 766.427 240.057 765.909 240.057C764.982 240.059 763.258 240.177 761.083 240.328C752.027 240.953 735.122 242.121 735.088 237.53C735.085 237.088 735.224 236.693 735.487 236.337C734.769 235.585 734.124 234.479 733.709 233.1C732.221 228.148 732.081 222.805 731.97 217.671C731.814 210.42 731.813 203.161 731.811 195.905C731.81 192.176 731.809 188.449 731.788 184.725C730.819 183.388 731.394 181.859 732.602 180.792C735.174 178.522 741.557 178.495 746.175 178.475C747.418 178.47 748.532 178.464 749.411 178.417ZM739.71 234.324C745.456 233.062 755.138 233.468 760.324 233.686C761.683 233.743 762.733 233.786 763.324 233.784C768.622 233.763 773.921 233.839 779.215 234.057C779.764 234.079 780.575 234.058 781.532 234.032C783.455 233.983 785.961 233.918 788.089 234.161C788.06 233.864 788.041 233.593 788.03 233.359C787.791 228.512 787.964 223.625 788.134 218.764C788.17 217.731 788.207 216.699 788.239 215.67C788.353 212.036 788.504 208.403 788.655 204.771V204.769C788.75 202.482 788.844 200.196 788.931 197.909C788.968 196.905 788.912 195.541 788.849 194.008C788.722 190.888 788.564 187.062 789.107 184.122C787.147 184.085 785.139 183.942 783.296 183.811C781.522 183.684 779.901 183.57 778.627 183.568C777.011 183.568 775.397 183.563 773.781 183.558C769.304 183.544 764.829 183.53 760.352 183.621C759.928 183.63 759.504 183.638 759.078 183.647C752.914 183.769 746.698 183.893 740.587 184.728C740.228 184.777 739.799 184.871 739.321 184.985C739.992 187.866 739.663 191.925 739.376 195.479C739.236 197.206 739.106 198.813 739.105 200.109C739.096 208.168 739.303 216.195 739.509 224.215V224.216C739.588 227.25 739.666 230.281 739.732 233.314C739.741 233.676 739.732 234.012 739.71 234.324Z" fill="#89C5CC"/>
<path opacity="0.5" fill-rule="evenodd" clip-rule="evenodd" d="M674.31 238.482C670.393 240.836 672.505 250.251 673.863 253.507C676.094 258.862 680.621 263.051 685.506 265.83C695.38 271.447 709.614 269.955 717.081 279.694C717.159 279.794 719.739 282.422 720.327 279.019C720.809 276.226 715.991 271.961 714.123 270.562C708.813 266.58 702.003 265.297 695.861 263.308C689.311 261.187 682.123 257.277 679.376 250.332C678.404 247.873 680.258 234.893 674.31 238.482Z" fill="#C1DEE2"/>
<path opacity="0.5" fill-rule="evenodd" clip-rule="evenodd" d="M763.872 243.009C760.282 244.027 762.657 249.107 762.65 251.65C762.644 254.825 761.657 258.146 759.755 260.678C754.933 267.1 745.488 268.062 738.408 269.905C733.267 271.242 720.967 274.111 720.486 281.262C719.948 289.246 730.807 279.529 731.725 279.131C741.874 275.302 755.005 274.563 762.84 266.135C766.073 262.656 767.984 258.013 768.289 253.221C768.459 250.522 768.489 241.712 763.872 243.009Z" fill="#C1DEE2"/>
<path opacity="0.5" fill-rule="evenodd" clip-rule="evenodd" d="M689.689 313.835C689.605 299.061 703.354 290.123 715.787 286.762C730.729 282.714 744.649 293.481 746.41 308.97C748.269 325.317 736.29 338.476 720.491 339.197C706.593 339.831 689.778 329.599 689.689 313.835ZM723.069 293.866C723.878 294.996 724.607 296.799 722.979 297.781C721.413 298.72 720.63 297.591 719.843 296.455C719.344 295.738 718.846 295.017 718.144 294.814C716.328 294.288 713.409 296.253 711.896 297.398C711.282 297.863 710.408 298.864 709.385 300.035C706.133 303.759 701.386 309.198 698.76 304.518C688.292 323.106 714.39 337.018 729.228 329.983C745.526 322.257 742.354 294.013 723.069 293.866Z" fill="#89C5CC"/>
<path opacity="0.5" fill-rule="evenodd" clip-rule="evenodd" d="M709.392 308.889C709.392 312.28 714.599 312.28 714.599 308.889C714.599 305.536 709.392 305.393 709.392 308.889Z" fill="#89C5CC"/>
<path opacity="0.5" fill-rule="evenodd" clip-rule="evenodd" d="M718.554 308.253C718.554 312.406 724.935 312.406 724.935 308.253C724.935 304.146 718.554 303.971 718.554 308.253Z" fill="#89C5CC"/>
<path opacity="0.5" fill-rule="evenodd" clip-rule="evenodd" d="M711.998 317.931C706.779 321.089 721.703 327.361 722.292 320.951C722.546 318.185 719.942 318.931 718.206 318.729C716.545 318.533 713.573 316.988 711.998 317.931Z" fill="#89C5CC"/>
<path opacity="0.5" fill-rule="evenodd" clip-rule="evenodd" d="M709.734 340.327C709.961 348.39 709.852 356.45 711.339 364.399C711.622 365.909 711.817 371.387 712.978 372.509C715.833 375.268 715.88 369.98 715.991 367.952C716.387 360.693 715.645 353.207 715.482 345.932C715.447 344.366 715.851 341.123 715.132 339.607C713.992 337.202 709.622 336.487 709.734 340.327Z" fill="#C1DEE2"/>
<path opacity="0.5" fill-rule="evenodd" clip-rule="evenodd" d="M704.152 333.79C692.711 346.995 676.956 346.023 661.084 347.179C652.698 347.79 644.219 349.045 637.47 354.623C634.331 357.219 631.625 360.469 629.806 364.173C629.012 365.792 625.241 375.135 630.904 372.92C632.913 372.133 634.89 365.954 636.188 364.126C638.662 360.645 641.827 357.771 645.624 355.903C652.949 352.3 661.695 352.362 669.637 351.905C677.939 351.427 686.849 350.98 694.481 347.267C698.071 345.52 701.438 343.343 704.328 340.536C705.361 339.532 707.574 337.828 707.739 336.294C707.927 334.541 706.289 331.33 704.152 333.79Z" fill="#C1DEE2"/>
<path opacity="0.5" fill-rule="evenodd" clip-rule="evenodd" d="M646.395 374.321C635.648 374.691 624.913 375.138 614.181 375.837C611.983 375.98 604.65 375.523 606.517 380.158C608.014 383.872 616.957 381.416 619.915 381.235C631.098 380.552 642.327 380.315 653.487 379.281C655.994 379.049 667.326 379.141 662.646 374.572C660.42 372.398 649.47 374.214 646.395 374.321Z" fill="#89C5CC"/>
<path opacity="0.5" fill-rule="evenodd" clip-rule="evenodd" d="M599.693 379.652C596.305 384.228 597.862 395.348 598.118 400.849C598.366 406.178 597.359 415.924 604.125 416.751C601.976 416.461 605.756 416.885 606.371 416.918C607.744 416.994 609.124 417.019 610.5 417.034C613.678 417.07 616.857 417.026 620.034 416.961C627.231 416.814 634.446 416.597 641.634 416.189C644.656 416.016 661.046 416.161 661.695 412.932C662.524 408.807 646.809 411.142 643.996 411.273C637.145 411.596 630.282 411.665 623.425 411.756C620.026 411.802 616.624 411.837 613.226 411.769C611.821 411.741 606.264 412.333 605.411 411.37C604.683 410.55 605.251 403.014 605.236 401.861C605.186 398.103 605.189 394.338 605.32 390.581C605.407 388.053 606.737 383.241 605.653 380.865C604.599 378.556 601.529 377.767 599.693 379.652Z" fill="#89C5CC"/>
<path opacity="0.5" fill-rule="evenodd" clip-rule="evenodd" d="M655.032 379.866C655.229 388.237 655.289 396.775 657.212 404.962C657.852 407.685 658.748 413.303 661.41 414.714C664.202 416.194 666.614 414.081 666.796 411.234C667.027 407.657 665.163 402.959 664.781 399.287C664.335 395.004 664.075 390.717 663.922 386.411C663.807 383.174 664.764 378.32 661.763 376.233C659.067 374.357 654.944 376.246 655.032 379.866Z" fill="#89C5CC"/>
<path opacity="0.5" fill-rule="evenodd" clip-rule="evenodd" d="M676.419 377.823C673.077 381.247 674.57 392.087 674.989 396.487C675.294 399.709 678.724 415.56 683.863 407.294C686.137 403.638 683.248 393.969 683.269 389.705C683.282 386.99 684.216 383.557 683.765 380.948C683.169 377.501 679.451 374.709 676.419 377.823Z" fill="#89C5CC"/>
<path opacity="0.5" fill-rule="evenodd" clip-rule="evenodd" d="M699.563 374.996C709.602 373.931 719.654 373.132 729.749 373.033C730.234 373.029 730.743 373.023 731.273 373.016C738.191 372.926 748.589 372.79 753.245 378.133C755.782 381.043 756.931 385.543 757.933 389.466C758.119 390.196 758.301 390.909 758.486 391.586C758.643 392.165 758.849 392.824 759.07 393.538C760.116 396.905 761.532 401.462 760.096 404.282C759.31 405.829 758.043 407.148 756.12 406.601C755.672 406.472 755.32 406.308 755.044 406.115C755.781 406.934 756.106 408.103 755.628 409.244C754.703 411.452 751.783 411.5 749.481 411.536C748.923 411.545 748.402 411.554 747.954 411.592C740.288 412.249 732.588 412.687 724.897 412.757C721.234 412.789 717.571 412.758 713.908 412.729C710.138 412.696 706.368 412.664 702.598 412.703C699.861 412.73 697.075 412.998 694.287 413.266C690.768 413.603 687.246 413.941 683.823 413.797C681.262 413.688 678.528 412.827 679.177 409.423C679.706 406.644 682.249 406.402 684.528 406.184C684.726 406.166 684.923 406.147 685.116 406.126C692.373 405.368 699.632 405.098 706.925 405.125C722.247 405.18 737.558 405.098 752.878 405.016C753.508 405.07 754.101 405.317 754.589 405.694C754.038 405.006 754.049 404.088 754.061 403.113C754.066 402.671 754.071 402.217 754.024 401.767C753.93 400.861 753.845 399.96 753.759 399.059C753.476 396.085 753.195 393.132 752.643 390.141C752.56 389.689 752.48 389.191 752.395 388.666C751.892 385.56 751.228 381.444 748.827 379.767C746.412 378.08 741.676 378.161 737.986 378.225C736.99 378.241 736.069 378.257 735.291 378.236C725.444 377.975 715.54 378.695 705.736 379.611C704.983 379.682 704.229 379.749 703.474 379.817C699.745 380.15 695.995 380.487 692.32 381.172C691.647 381.298 690.62 381.667 689.441 382.091C686.306 383.215 682.1 384.724 680.671 383.062C675.938 377.557 696.739 375.296 699.563 374.996Z" fill="#89C5CC"/>
<path opacity="0.5" fill-rule="evenodd" clip-rule="evenodd" d="M806.373 362.462C806.811 363.039 806.811 363.039 806.373 362.462V362.462ZM738.435 328.354C732.336 332.04 743.622 342.855 746.497 344.527C752.966 348.291 761.856 348.859 769.079 349.917C778.221 351.258 788.17 351.751 796.957 354.832C800.701 356.144 803.079 358.193 805.53 361.341C806.773 362.937 809.763 369.812 812.487 368.184C817.971 364.907 803.194 351.151 799.938 349.672C792.537 346.31 783.789 345.368 775.875 344.063C768.517 342.848 760.999 341.945 753.823 339.804C749.877 338.628 747.072 336.729 744.797 333.095C743.379 330.83 742.216 326.079 738.435 328.354Z" fill="#C1DEE2"/>
<path opacity="0.5" fill-rule="evenodd" clip-rule="evenodd" d="M831.909 370.601C824.878 370.762 817.862 371.318 810.847 371.874C806.911 372.185 802.976 372.497 799.04 372.739C797.809 372.815 796.576 372.884 795.343 372.952C791.875 373.144 788.402 373.336 784.951 373.695C784.427 373.749 783.82 373.801 783.157 373.856C780.226 374.104 776.23 374.441 773.675 375.541C771.334 373.72 767.72 375.268 767.664 378.514C767.567 384.427 767.62 390.236 768.321 396.113C768.484 397.477 769.322 404.383 771.146 407.979C770.497 411.375 773.312 412.325 775.932 412.586C786.078 413.593 796.718 412.811 807.214 412.041C812.552 411.648 817.853 411.259 823.033 411.108C824.756 411.058 826.501 411.038 828.256 411.018C833.983 410.952 839.821 410.885 845.365 409.771C845.588 409.726 845.827 409.682 846.078 409.636C848.27 409.232 851.293 408.675 851.523 406.193C851.661 404.704 850.844 403.341 849.478 403.149C849.572 401.909 849.42 400.555 849.309 399.56C849.282 399.328 849.259 399.116 849.241 398.929C848.908 395.479 848.072 392.051 847.247 388.667C847.061 387.906 846.877 387.147 846.698 386.392C846.5 385.555 846.317 384.558 846.119 383.484C845.423 379.693 844.546 374.931 842.217 372.719C839.773 370.4 835.796 370.502 832.609 370.584C832.371 370.591 832.137 370.597 831.909 370.601ZM844.279 403.52C843.446 401.276 843.202 398.242 842.97 395.358C842.825 393.548 842.683 391.796 842.405 390.337C842.194 389.242 842.023 388.087 841.849 386.914C841.425 384.063 840.986 381.101 839.945 378.603C838.552 375.258 837.312 375.385 834.378 375.688C833.833 375.745 833.228 375.807 832.554 375.854C829.564 376.063 826.576 376.328 823.589 376.595C822.156 376.723 820.723 376.85 819.29 376.971C813.157 377.489 807.02 377.888 800.883 378.286C797.298 378.52 793.711 378.751 790.126 379.009C787.312 379.21 784.565 379.76 781.83 380.308C779.665 380.742 777.505 381.175 775.325 381.431C775.294 382.198 775.231 382.967 775.171 383.7C775.09 384.698 775.015 385.628 775.031 386.389C775.102 389.767 775.392 393.123 775.682 396.485C775.727 397.002 775.771 397.518 775.815 398.036C775.868 398.656 775.998 399.452 776.142 400.336C776.364 401.703 776.62 403.277 776.677 404.726C776.942 404.725 777.207 404.726 777.466 404.726C777.802 404.727 778.131 404.729 778.448 404.724C786.175 404.584 793.897 404.344 801.619 404.038C802.605 404 803.591 403.96 804.577 403.921C811.467 403.645 818.357 403.368 825.253 403.287C827.993 403.255 830.767 403.344 833.552 403.433C837.134 403.546 840.729 403.661 844.279 403.52Z" fill="#89C5CC"/>
</g>
<path fill-rule="evenodd" clip-rule="evenodd" d="M781.317 393.707C768.554 393.707 763.913 380.024 756.662 372.515C751.475 367.143 742.621 368.745 740 361.224C733.41 342.311 751.048 329 774.058 329C797.068 329 812.583 340.674 815.933 358.224C819.283 375.773 804.327 393.707 781.317 393.707Z" fill="#191847"/>
<path fill-rule="evenodd" clip-rule="evenodd" d="M766.872 391.244C759.641 395.147 752.536 397.033 749.201 396.263C740.838 394.333 740.069 366.935 746.54 356.134C753.011 345.333 786.277 340.625 787.953 362.025C788.535 369.453 785.053 376.081 779.907 381.49L789.133 420H762.333L766.872 391.244Z" fill="#B28B67"/>
<path fill-rule="evenodd" clip-rule="evenodd" d="M786.211 347C806.739 365 786.133 384.132 780.487 384.132C780.122 381.535 779.011 379.008 777.382 376.604C778.247 375.6 778.759 374.352 778.759 373C778.759 369.686 775.681 367 771.885 367C770.699 367 769.583 367.262 768.609 367.723C760.379 361.438 750.057 357.056 744.932 356.195C736.018 354.696 765.683 329 786.211 347Z" fill="#191847"/>
<path fill-rule="evenodd" clip-rule="evenodd" d="M798.067 503L756.046 626.024L735.689 730.648H719.729L741.238 503H798.067Z" fill="#997659"/>
<path fill-rule="evenodd" clip-rule="evenodd" d="M813.1 503C810.245 570.547 813.604 605.389 814.243 611.526C814.882 617.663 823.629 657.455 844.337 732.708L827.33 727.478C794.603 658.459 783.451 622.589 779.697 613.526C775.944 604.463 765.974 567.621 749.789 503H813.1Z" fill="#B28B67"/>
<path fill-rule="evenodd" clip-rule="evenodd" d="M841.472 726.142C842.497 725.729 843.682 726.174 844.1 727.196C844.92 729.199 846.083 732.353 846.083 734.106C846.083 736.811 845.077 742 845.077 742C841.573 742 782.095 742 782.095 742C782.095 742 779.64 734.732 784.929 734.152C790.219 733.573 793.717 733.106 793.717 733.106L823.158 721.352C823.652 721.155 824.214 721.379 824.437 721.863L826.359 726.039C826.359 726.039 831.256 728.085 834.317 728.085C836.295 728.085 839.471 726.947 841.472 726.142Z" fill="#E4E4E4"/>
<path fill-rule="evenodd" clip-rule="evenodd" d="M736.505 726.142C737.53 725.729 738.715 726.174 739.133 727.196C739.953 729.199 741.117 732.353 741.117 734.106C741.117 736.811 740.11 742 740.11 742C736.606 742 677.128 742 677.128 742C677.128 742 674.673 734.732 679.963 734.152C685.252 733.573 688.751 733.106 688.751 733.106L718.191 721.352C718.686 721.155 719.248 721.379 719.47 721.863L721.393 726.039C721.393 726.039 726.289 728.085 729.351 728.085C731.328 728.085 734.505 726.947 736.505 726.142Z" fill="#E4E4E4"/>
<path fill-rule="evenodd" clip-rule="evenodd" d="M803.65 503L785.783 565.68H731.211L739.348 503H803.65Z" fill="#69A1AC"/>
<path fill-rule="evenodd" clip-rule="evenodd" d="M813.7 503C822.518 526.671 817.05 565.68 817.05 565.68H761.361L746.048 503H813.7Z" fill="#89C5CC"/>
<path fill-rule="evenodd" clip-rule="evenodd" d="M668.118 514.758L699.75 487.122L710.257 503.402L677.363 520.77C669.115 532.405 664.271 537.432 662.831 535.852C661.616 534.519 662.173 533.058 662.685 531.713C663.085 530.665 663.458 529.687 662.946 528.894C661.777 527.082 655.172 528.119 648.952 529.344C642.732 530.568 644.171 527.832 645.494 526.404C651.372 522.155 658.914 518.273 668.118 514.758ZM854.572 554.908C851.3 548.963 840.156 491.02 840.156 491.02L816.821 491.102C816.821 491.102 838.434 553.583 840.156 557.406C842.394 562.372 838.593 569.587 836.015 574.48C835.617 575.237 835.247 575.938 834.934 576.567C838.51 578 840.228 576.268 842.039 574.442C844.085 572.379 846.25 570.197 851.345 572.319C853.314 573.14 855.177 574.109 856.997 575.057C863.284 578.329 869.059 581.336 876.916 576.994C878.161 576.306 879.526 573.715 876.228 571.69C868.012 566.645 856.172 557.815 854.572 554.908Z" fill="#B28B67"/>
<path fill-rule="evenodd" clip-rule="evenodd" d="M773.841 403.332L764.185 401.849C747.56 439.039 718.536 472.831 677.111 503.225L708.414 537.281C749.833 494.005 775.365 449.355 773.841 403.332Z" fill="#191847"/>
<path fill-rule="evenodd" clip-rule="evenodd" d="M815.933 512H729.95C729.95 512 759.831 446.938 759.831 401.461L785.767 398C806.151 427.358 811.908 463.505 815.933 512Z" fill="#DDE3E9"/>
<path fill-rule="evenodd" clip-rule="evenodd" d="M855.017 545C845.613 449.996 786.337 398 786.337 398L786.317 398.016C786.313 398.011 786.31 398.005 786.306 398H784.613C781.575 398.094 775.356 398.338 775.356 398.338L769.089 414.377C768.095 443.71 757.475 532.606 757.475 532.606H813.756C813.66 536.682 813.448 540.815 813.107 545H855.017Z" fill="#2F3676"/>
<path fill-rule="evenodd" clip-rule="evenodd" d="M813.746 533C814.196 515.25 812.437 498.584 809.504 483.502C807.97 501.399 804.763 522.933 798.067 533H813.746Z" fill="black" fill-opacity="0.1"/>
<path fill-rule="evenodd" clip-rule="evenodd" d="M801.293 502L773.5 490.429V502H801.293Z" fill="white" fill-opacity="0.2"/>
<path fill-rule="evenodd" clip-rule="evenodd" d="M168.935 513.244C175.411 517.147 181.774 519.033 184.76 518.263C192.25 516.333 192.938 488.935 187.143 478.134C181.349 467.333 151.558 462.625 150.057 484.025C149.536 491.453 152.654 498.081 157.262 503.49L149 542H173L168.935 513.244Z" fill="#B28B67"/>
<path fill-rule="evenodd" clip-rule="evenodd" d="M170.135 486.389C172.211 483.298 174.204 480.94 176.797 479.571C187.348 479.738 188.583 477.846 188.583 471.471C186.879 470.252 180.866 468.198 174.132 467.621C170.697 466.638 166.627 466.822 162.707 468.462C157.868 469.835 153.77 472.792 151.96 478.328C145.412 489.629 150.382 501.393 157.08 505.411C158.863 503.299 160.419 501.252 161.807 499.292C160.692 498.203 160 496.682 160 495C160 491.686 162.686 489 166 489C166.244 489 166.484 489.015 166.72 489.043C166.869 493.186 167.483 507.203 169.094 512.071C170.995 517.812 182.084 519.221 185.951 519.221C189.292 519.221 189.178 516.058 189.096 513.791C189.084 513.464 189.073 513.156 189.073 512.879C189.073 512.3 188.32 512.302 187.469 512.303C186.364 512.306 185.094 512.308 185.094 511.04C185.094 509.658 187.004 508.598 188.713 507.649C189.779 507.057 190.768 506.509 191.165 505.952C192.419 504.198 192.841 501.831 190.95 501.831C189.916 501.831 188.497 502.427 186.791 503.144C184.215 504.226 180.983 505.585 177.426 505.585C171.55 505.585 170.153 486.626 170.135 486.389Z" fill="#191847"/>
<path fill-rule="evenodd" clip-rule="evenodd" d="M141 625L177.255 752.227L203.707 846H223L194.891 625H141Z" fill="#191847"/>
<path fill-rule="evenodd" clip-rule="evenodd" d="M131.304 625C130.466 690.574 127.606 726.34 126.726 732.298C125.845 738.256 112.532 776.156 86.7864 846H106.773C139.549 778.997 157.846 741.096 161.663 732.298C165.479 723.5 177.259 687.734 195 625H131.304Z" fill="#2F3676"/>
<path fill-rule="evenodd" clip-rule="evenodd" d="M85 864L86 843L107 843C121.936 853.5 146 860 146 860V864H108L95 862V864H85Z" fill="#191847"/>
<path fill-rule="evenodd" clip-rule="evenodd" d="M201 864L202 843L223 843C237.936 853.5 262 860 262 860V864H224L211 862V864H201Z" fill="#191847"/>
<path fill-rule="evenodd" clip-rule="evenodd" d="M63.3644 661.284C67.0937 655.804 88.6671 597.536 88.6671 597.536L106.379 600.108C106.379 600.108 77.8609 661.982 75.8012 665.554C73.1256 670.193 75.4922 677.812 77.097 682.978C77.3452 683.777 77.5753 684.518 77.7656 685.179C74.3946 686.153 73.1122 684.223 71.7602 682.189C70.2332 679.892 68.6173 677.461 63.8031 678.928C61.9431 679.495 60.1561 680.223 58.4102 680.934C52.3796 683.391 46.8395 685.648 40.4764 680.37C39.4676 679.533 38.6179 676.797 41.8243 675.203C49.8125 671.231 61.5412 663.963 63.3644 661.284ZM255.545 634.202L225.359 608.61L217.109 625.507L247.706 640.777C255.885 651.868 260.564 656.581 261.74 654.914C262.732 653.509 262.133 652.087 261.581 650.776C261.151 649.756 260.75 648.803 261.152 647.98C262.07 646.1 268.042 646.722 273.684 647.555C279.326 648.388 277.85 645.749 276.569 644.407C271.021 640.536 264.013 637.134 255.545 634.202Z" fill="#B28B67"/>
<path fill-rule="evenodd" clip-rule="evenodd" d="M162.695 525.332L173.67 521.703C188.557 558.893 210.761 594.876 247.857 625.27L238.684 641.097C206.081 621.892 175.219 606.973 162.695 578.155C158.492 568.483 162.352 536.897 162.695 525.332Z" fill="#C5CFD6"/>
<path fill-rule="evenodd" clip-rule="evenodd" d="M125 630C125 630 172.157 635 199.236 630C201.473 629.587 201.826 625.842 200.788 623.301C184.636 583.724 173.56 549.192 173.56 521.703C169.115 523.944 158 522.374 158 522.374C138.086 550.703 128.933 583.206 125 630Z" fill="#323337"/>
<path fill-rule="evenodd" clip-rule="evenodd" d="M152.293 520C152.807 519.654 153.079 519.481 153.079 519.481L153.049 520H161.348C161.765 522.453 162.376 531.543 163.267 544.798C166.504 592.965 173.436 696.127 188.191 735.606H86.3853C88.5333 690.722 105.082 637.047 122.224 591.47C109.574 604.056 94.8013 625.153 82.8618 660.273L63.7926 655.378C83.2259 571.638 140.162 528.452 151.21 520.744C151.317 520.495 151.425 520.247 151.532 520H152.293Z" fill="#DDE3E9"/>
</g>
<defs>
<clipPath id="clip0">
<rect width="927" height="876" fill="white"/>
</clipPath>
</defs>
</svg>
